<?xml version="1.0" encoding="UTF-8" standalone="no"?>
<!-- Created with Inkscape (http://www.inkscape.org/) -->

<svg
   version="1.1"
   id="svg2"
   width="2048"
   height="2048"
   viewBox="0 0 2048 2048"
   sodipodi:docname="InnerBottom.svg"
   xml:space="preserve"
   inkscape:version="1.2 (dc2aedaf03, 2022-05-15)"
   inkscape:export-filename="InnerBottom.png"
   inkscape:export-xdpi="96"
   inkscape:export-ydpi="96"
   xmlns:inkscape="http://www.inkscape.org/namespaces/inkscape"
   xmlns:sodipodi="http://sodipodi.sourceforge.net/DTD/sodipodi-0.dtd"
   xmlns="http://www.w3.org/2000/svg"
   xmlns:svg="http://www.w3.org/2000/svg"><defs
     id="defs6"><inkscape:path-effect
       effect="mirror_symmetry"
       start_point="1024,1024.8217"
       end_point="1024,1104.6041"
       center_point="1024,1064.7129"
       id="path-effect861"
       is_visible="true"
       lpeversion="1.2"
       lpesatellites=""
       mode="free"
       discard_orig_path="false"
       fuse_paths="false"
       oposite_fuse="false"
       split_items="false"
       split_open="false"
       link_styles="false" /><inkscape:path-effect
       effect="mirror_symmetry"
       start_point="2042.3974,1021.1206"
       end_point="2042.3974,1100.903"
       center_point="2042.3974,1061.0118"
       id="path-effect246"
       is_visible="true"
       lpeversion="1.2"
       lpesatellites=""
       mode="free"
       discard_orig_path="false"
       fuse_paths="false"
       oposite_fuse="false"
       split_items="false"
       split_open="false"
       link_styles="false" /><inkscape:path-effect
       effect="mirror_symmetry"
       start_point="2041.2252,1014.5482"
       end_point="2041.2252,1095.2325"
       center_point="2041.2252,1054.8903"
       id="path-effect3928"
       is_visible="true"
       lpeversion="1.2"
       lpesatellites=""
       mode="free"
       discard_orig_path="false"
       fuse_paths="false"
       oposite_fuse="false"
       split_items="false"
       split_open="false"
       link_styles="false" /><inkscape:path-effect
       effect="mirror_symmetry"
       start_point="1024,1030.6872"
       end_point="1024,1111.3715"
       center_point="1024,1071.0294"
       id="path-effect3899"
       is_visible="true"
       lpeversion="1.2"
       lpesatellites=""
       mode="free"
       discard_orig_path="false"
       fuse_paths="false"
       oposite_fuse="false"
       split_items="false"
       split_open="false"
       link_styles="false" /></defs><sodipodi:namedview
     id="namedview4"
     pagecolor="#ffffff"
     bordercolor="#000000"
     borderopacity="0.25"
     inkscape:showpageshadow="2"
     inkscape:pageopacity="0.0"
     inkscape:pagecheckerboard="0"
     inkscape:deskcolor="#d1d1d1"
     showgrid="false"
     inkscape:zoom="0.57314321"
     inkscape:cx="1019.8149"
     inkscape:cy="1164.6304"
     inkscape:window-width="1920"
     inkscape:window-height="991"
     inkscape:window-x="-9"
     inkscape:window-y="-9"
     inkscape:window-maximized="1"
     inkscape:current-layer="layer1" /><g
     inkscape:groupmode="layer"
     id="layer1"
     inkscape:label="Sides"
     style="display:inline"
     class="UnoptimicedTransforms"
     inkscape:path-effect="#path-effect861"><path
       style="display:inline;fill:#939fd1;fill-opacity:0.823529;stroke-width:0.01;stroke-linecap:round;stroke-opacity:0.5"
       d="m 7.5016172,1074.1067 c 0,0 2.1315826,0.059 2.6030848,1.0342 4.420592,9.1443 18.92513,26.8126 40.556481,2.0263 19.392476,2.627 23.558252,-16.6264 37.011108,-16.1552 15.361409,0.5381 19.897069,21.31 40.867469,21.3591 0,0 16.37278,29.1258 38.89004,-0.2829 22.70886,0.2723 23.96364,-22.2782 39.09786,-23.2742 14.9428,-0.9834 17.46795,21.0148 41.28202,17.7224 0,0 20.07332,23.5478 36.94789,-0.7837 25.45577,0.2964 24.35313,-24.573 39.86893,-24.0707 15.07698,0.488 12.42235,26.1798 37.14756,25.8465 15.18014,14.206 24.30883,15.5036 39.69195,1.3342 35.32936,-1.9319 27.73357,-20.7185 43.98072,-21.031 15.51021,-0.2983 19.83217,20.338 42.72677,18.4478 l -1.2356,-60.7494 -480.1387525,-0.08 c 0,0 -3.1126539,58.7147 0.7024697,58.6571 z m 2032.9967828,0 c 0,0 -2.1316,0.059 -2.6031,1.0342 -4.4206,9.1443 -18.9251,26.8126 -40.5565,2.0263 -19.3925,2.627 -23.5582,-16.6264 -37.0111,-16.1552 -15.3614,0.5381 -19.8971,21.31 -40.8675,21.3591 0,0 -16.3727,29.1258 -38.89,-0.2829 -22.7089,0.2723 -23.9636,-22.2782 -39.0979,-23.2742 -14.9428,-0.9834 -17.4679,21.0148 -41.282,17.7224 0,0 -20.0733,23.5478 -36.9479,-0.7837 -25.4557,0.2964 -24.3531,-24.573 -39.8689,-24.0707 -15.077,0.488 -12.4223,26.1798 -37.1476,25.8465 -15.1801,14.206 -24.3088,15.5036 -39.6919,1.3342 -35.3294,-1.9319 -27.7336,-20.7185 -43.9807,-21.031 -15.5102,-0.2983 -19.8322,20.338 -42.7268,18.4478 l 1.2356,-60.7494 480.1388,-0.08 c 0,0 3.1126,58.7147 -0.7025,58.6571 z"
       id="path3423"
       sodipodi:nodetypes="sscaccaccaccacccs"
       class="UnoptimicedTransforms"
       transform="translate(0,5.6704852)"
       inkscape:original-d="m 7.5016172,1074.1067 c 0,0 2.1315826,0.059 2.6030848,1.0342 4.420592,9.1443 18.92513,26.8126 40.556481,2.0263 19.392476,2.627 23.558252,-16.6264 37.011108,-16.1552 15.361409,0.5381 19.897069,21.31 40.867469,21.3591 0,0 16.37278,29.1258 38.89004,-0.2829 22.70886,0.2723 23.96364,-22.2782 39.09786,-23.2742 14.9428,-0.9834 17.46795,21.0148 41.28202,17.7224 0,0 20.07332,23.5478 36.94789,-0.7837 25.45577,0.2964 24.35313,-24.573 39.86893,-24.0707 15.07698,0.488 12.42235,26.1798 37.14756,25.8465 15.18014,14.206 24.30883,15.5036 39.69195,1.3342 35.32936,-1.9319 27.73357,-20.7185 43.98072,-21.031 15.51021,-0.2983 19.83217,20.338 42.72677,18.4478 l -1.2356,-60.7494 -480.1387525,-0.08 c 0,0 -3.1126539,58.7147 0.7024697,58.6571 z" /><path
       style="display:inline;fill:#fafafa;fill-opacity:0.823529;stroke-width:0.01;stroke-linecap:round;stroke-opacity:0.5"
       d="m 7.5016172,1074.1067 c 0,0 2.1315826,0.059 2.6030848,1.0342 4.420592,9.1443 18.92513,26.8126 40.556481,2.0263 19.392476,2.627 23.558252,-16.6264 37.011108,-16.1552 15.361409,0.5381 19.897069,21.31 40.867469,21.3591 0,0 16.37278,29.1258 38.89004,-0.2829 22.70886,0.2723 23.96364,-22.2782 39.09786,-23.2742 14.9428,-0.9834 17.46795,21.0148 41.28202,17.7224 0,0 20.07332,23.5478 36.94789,-0.7837 25.45577,0.2964 24.35313,-24.573 39.86893,-24.0707 15.07698,0.488 12.42235,26.1798 37.14756,25.8465 15.18014,14.206 24.30883,15.5036 39.69195,1.3342 35.32936,-1.9319 27.73357,-20.7185 43.98072,-21.031 15.51021,-0.2983 19.83217,20.338 42.72677,18.4478 0,0 0.89674,-3.9451 -0.11109,-5.4617 -15.67083,4.674 -26.9931,-19.2397 -42.4855,-18.876 -16.5921,0.3896 -19.25721,24.5153 -44.50235,22.3291 -17.97444,14.5724 -22.81299,12.2228 -39.19871,-1.4344 -20.86007,2.8546 -22.16816,-26.0504 -37.40929,-26.301 -16.26443,-0.2674 -17.02523,25.3006 -40.82207,26.7393 -13.52023,13.2618 -19.33847,14.0457 -36.13072,-1.3713 -16.01281,5.7336 -26.23466,-19.2155 -41.21769,-18.1921 -15.10895,1.0321 -20.87444,24.9023 -38.68336,23.8266 -16.78319,21.7661 -28.88198,15.1061 -38.90448,-0.2856 -12.55464,2.0562 -25.68412,-21.4738 -41.246356,-21.9114 -13.557989,-0.3812 -18.239972,20.3979 -36.950118,17.0402 -21.915374,22.513 -28.554372,13.839 -39.855117,-1.0478 -0.535495,-0.7055 -2.4162595,-0.2544 -3.3427614,-0.3457 l 0.1877296,3.1195 z m 2032.9967828,0 c 0,0 -2.1316,0.059 -2.6031,1.0342 -4.4206,9.1443 -18.9251,26.8126 -40.5565,2.0263 -19.3925,2.627 -23.5582,-16.6264 -37.0111,-16.1552 -15.3614,0.5381 -19.8971,21.31 -40.8675,21.3591 0,0 -16.3727,29.1258 -38.89,-0.2829 -22.7089,0.2723 -23.9636,-22.2782 -39.0979,-23.2742 -14.9428,-0.9834 -17.4679,21.0148 -41.282,17.7224 0,0 -20.0733,23.5478 -36.9479,-0.7837 -25.4557,0.2964 -24.3531,-24.573 -39.8689,-24.0707 -15.077,0.488 -12.4223,26.1798 -37.1476,25.8465 -15.1801,14.206 -24.3088,15.5036 -39.6919,1.3342 -35.3294,-1.9319 -27.7336,-20.7185 -43.9807,-21.031 -15.5102,-0.2983 -19.8322,20.338 -42.7268,18.4478 0,0 -0.8967,-3.9451 0.1111,-5.4617 15.6708,4.674 26.9931,-19.2397 42.4855,-18.876 16.5921,0.3896 19.2572,24.5153 44.5023,22.3291 17.9745,14.5724 22.813,12.2228 39.1988,-1.4344 20.86,2.8546 22.1681,-26.0504 37.4092,-26.301 16.2645,-0.2674 17.0253,25.3006 40.8221,26.7393 13.5202,13.2618 19.3385,14.0457 36.1307,-1.3713 16.0128,5.7336 26.2347,-19.2155 41.2177,-18.1921 15.109,1.0321 20.8745,24.9023 38.6834,23.8266 16.7832,21.7661 28.882,15.1061 38.9045,-0.2856 12.5546,2.0562 25.6841,-21.4738 41.2463,-21.9114 13.558,-0.3812 18.24,20.3979 36.9501,17.0402 21.9154,22.513 28.5544,13.839 39.8552,-1.0478 0.5354,-0.7055 2.4162,-0.2544 3.3427,-0.3457 l -0.1877,3.1195 z"
       id="path4689"
       sodipodi:nodetypes="sscaccaccaccaccaccaccaccacsccs"
       class="UnoptimicedTransforms"
       transform="translate(0,5.6704852)"
       inkscape:original-d="m 7.5016172,1074.1067 c 0,0 2.1315826,0.059 2.6030848,1.0342 4.420592,9.1443 18.92513,26.8126 40.556481,2.0263 19.392476,2.627 23.558252,-16.6264 37.011108,-16.1552 15.361409,0.5381 19.897069,21.31 40.867469,21.3591 0,0 16.37278,29.1258 38.89004,-0.2829 22.70886,0.2723 23.96364,-22.2782 39.09786,-23.2742 14.9428,-0.9834 17.46795,21.0148 41.28202,17.7224 0,0 20.07332,23.5478 36.94789,-0.7837 25.45577,0.2964 24.35313,-24.573 39.86893,-24.0707 15.07698,0.488 12.42235,26.1798 37.14756,25.8465 15.18014,14.206 24.30883,15.5036 39.69195,1.3342 35.32936,-1.9319 27.73357,-20.7185 43.98072,-21.031 15.51021,-0.2983 19.83217,20.338 42.72677,18.4478 0,0 0.89674,-3.9451 -0.11109,-5.4617 -15.67083,4.674 -26.9931,-19.2397 -42.4855,-18.876 -16.5921,0.3896 -19.25721,24.5153 -44.50235,22.3291 -17.97444,14.5724 -22.81299,12.2228 -39.19871,-1.4344 -20.86007,2.8546 -22.16816,-26.0504 -37.40929,-26.301 -16.26443,-0.2674 -17.02523,25.3006 -40.82207,26.7393 -13.52023,13.2618 -19.33847,14.0457 -36.13072,-1.3713 -16.01281,5.7336 -26.23466,-19.2155 -41.21769,-18.1921 -15.10895,1.0321 -20.87444,24.9023 -38.68336,23.8266 -16.78319,21.7661 -28.88198,15.1061 -38.90448,-0.2856 -12.55464,2.0562 -25.68412,-21.4738 -41.246356,-21.9114 -13.557989,-0.3812 -18.239972,20.3979 -36.950118,17.0402 -21.915374,22.513 -28.554372,13.839 -39.855117,-1.0478 -0.535495,-0.7055 -2.4162595,-0.2544 -3.3427614,-0.3457 l 0.1877296,3.1195 z" /></g><g
     inkscape:groupmode="layer"
     id="layer3"
     inkscape:label="Main"><path
       style="display:inline;opacity:1;fill:#949fd1;fill-opacity:0.820809;stroke-width:0.01;stroke-linecap:round;stroke-opacity:0.5"
       d="m 495.73127,982.95681 v 207.84509 h 14.28526 c 0,0 14.8305,-14.7215 25.62623,-41.4382 191.37157,-29.9781 245.5427,-31.2552 434.44641,-10.0324 0,0 8.28763,28.7887 17.88383,42.3106 0,0 1.30858,29.2248 9.59621,50.5982 l 7.41529,47.5448 c 0,0 19.1924,37.5124 37.8395,-0.3271 l 18.6472,-97.1616 c 0,0 10.4686,-18.7562 15.921,-44.7096 168.4385,-23.8637 268.5983,-14.2138 434.0102,8.7238 0,0 17.5567,38.1667 26.6077,44.0553 l 13.0857,0.7633 c 0,0 4.471,-5.0162 5.5614,-12.4314 l -3.3849,-195.79639 c 0,0 -163.4699,-11.33495 -425.0217,41.09879 0,0 -88.3708,23.3775 -207.88723,0 -119.51638,-23.3775 -265.64042,-46.49558 -424.6321,-41.04319 z"
       id="path3884"
       sodipodi:nodetypes="cccccccccccccccccsc"
       inkscape:label="Cloth" /><path
       style="display:inline;opacity:1;fill:none;fill-opacity:0.820809;stroke:#949fd1;stroke-width:10;stroke-linecap:butt;stroke-dasharray:none;stroke-opacity:0.5"
       d="m 1528.6414,999.656 c -10.7678,-0.19245 -24.9513,-0.25254 -42.3224,0.0815 m -22.1367,0.5989 c -12.5772,0.4353 -26.3966,1.0703 -41.4001,1.9713 m -20.53,1.3526 c -13.2147,0.9465 -27.2162,2.0936 -41.9721,3.4784 m -20.9348,2.0757 c -13.4191,1.4009 -27.3963,2.9942 -41.9104,4.8044 m -21.4117,2.7784 c -13.4254,1.8094 -27.2711,3.8012 -41.522,5.9929 m -19.6936,3.116 c -13.5093,2.197 -27.3588,4.5715 -41.5366,7.1372 m -21.5549,4.002 c -7.7309,1.4715 -15.5533,2.9993 -23.4655,4.5855 0,0 -5.9553,1.5754 -16.8648,3.4993 m -22.0939,3.2581 c -11.2073,1.3572 -24.574,2.5576 -39.757,3.1805 m -50.71931,-0.2878 c -13.15724,-0.6801 -27.0613,-1.8667 -41.58824,-3.7116 m -20.8757,-3.0522 c -5.26246,-0.8712 -10.59364,-1.8311 -15.98828,-2.8863 -8.66735,-1.4437 -17.25384,-2.8742 -25.76538,-4.2873 m -20.20988,-3.3431 c -13.50292,-2.2236 -26.82416,-4.3934 -39.98833,-6.4915 m -21.87868,-3.4397 c -13.50707,-2.0917 -26.85929,-4.0952 -40.08428,-5.9906 m -22.20405,-3.0927 c -13.66474,-1.8449 -27.20777,-3.5598 -40.6605,-5.122 m -21.36647,-2.3567 c -13.45528,-1.4028 -26.83595,-2.6385 -40.17405,-3.684 m -21.68388,-1.5304 c -13.97474,-0.8743 -27.92169,-1.5247 -41.87801,-1.9244 m -21.12184,-0.44661 c -6.55183,-0.0915 -13.13018,-0.13923 -19.734,-0.14104 m 0,0 c -7.26826,-0.002 -14.56739,0.0516 -21.89598,0.16375"
       id="path245"
       sodipodi:nodetypes="cccccccccccccccccccccccccccccccccccc"
       inkscape:label="Across" /><g
       id="g2818"
       inkscape:label="Ribbon"
       transform="translate(-45.975675,13.416867)"
       style="fill:#fafafa"><path
         style="fill:#717fc1;fill-opacity:0.5;stroke:none;stroke-width:9.61165;stroke-linecap:butt;stroke-dasharray:none;stroke-opacity:0.5"
         d="m 1069.7539,1039.5052 -7.3042,12.3171 0.7881,3.8817 7.8399,-14.505 c 0,0 1.547,13.3616 4.6966,12.7049 1.8911,-2.2331 1.8911,-2.2331 1.8911,-2.2331 0,0 -0.8656,0.2511 -2.717,-4.2804 -0.7794,-2.2933 -1.6375,-7.3419 -1.6375,-7.3419 l -2.2332,-1.3488 z"
         id="path2786"
         sodipodi:nodetypes="cccccccccc"
         inkscape:label="Shadow-Bottom" /><path
         style="fill:#717fc1;fill-opacity:0.8;stroke:none;stroke-width:7.93297;stroke-linecap:butt;stroke-dasharray:none;stroke-opacity:0.5"
         d="m 1055.1066,1038.3041 c 0.1079,7.2288 -0.394,10.5288 3.6035,8.675 2.8644,-1.3283 9.1345,-5.0941 12.3102,-6.9815 4.0641,2.2464 14.7045,11.77 15.7703,6.5463 1.0659,-5.2237 2.2095,-12.0548 -3.7274,-10.0785 -5.9368,1.9762 -11.9014,1.337 -11.9014,1.337 0,0 -16.1628,-6.7271 -16.0552,0.5017 z"
         id="path2565"
         sodipodi:nodetypes="sscsscs"
         inkscape:label="Shadow-Top" /><path
         style="fill:#828fc9;fill-opacity:0.823529;stroke:none;stroke-width:10;stroke-linecap:butt;stroke-dasharray:none;stroke-opacity:0.5"
         d="m 1069.4362,1039.379 -7.9064,12.3171 0.853,3.8817 8.4862,-14.505 c 0,0 1.6746,13.3616 5.0838,12.7049 2.047,-2.2331 2.047,-2.2331 2.047,-2.2331 0,0 -0.9369,0.2511 -2.9409,-4.2804 -0.8437,-2.2933 -1.7726,-7.3419 -1.7726,-7.3419 l -2.4173,-1.3488 z"
         id="path2814"
         sodipodi:nodetypes="cccccccccc"
         transform="translate(0.292774,-0.771084)" /><path
         style="fill:#828fc9;fill-opacity:1;stroke:none;stroke-width:10;stroke-linecap:butt;stroke-dasharray:none;stroke-opacity:0.5"
         d="m 1070.869,1036.6458 c 0,0 -18.6652,-12.7536 -18.5406,-2.8298 0.1246,9.9238 -0.03,15.09 4.5969,12.5454 4.6267,-2.5446 13.9437,-7.7879 13.9437,-7.7879 0,0 16.8996,13.7253 18.1334,6.5542 1.2337,-7.1711 2.5574,-16.549 -4.3145,-13.836 -6.8718,2.713 -13.8189,5.3541 -13.8189,5.3541"
         id="path2816"
         sodipodi:nodetypes="csscssc" /></g></g></svg>
