<?xml version="1.0" encoding="UTF-8" standalone="no"?>
<!-- Created with Inkscape (http://www.inkscape.org/) -->

<svg
   version="1.1"
   id="svg2"
   width="246"
   height="205"
   viewBox="0 0 246 205"
   sodipodi:docname="dove.svg"
   inkscape:version="1.2 (dc2aedaf03, 2022-05-15)"
   xmlns:inkscape="http://www.inkscape.org/namespaces/inkscape"
   xmlns:sodipodi="http://sodipodi.sourceforge.net/DTD/sodipodi-0.dtd"
   xmlns="http://www.w3.org/2000/svg"
   xmlns:svg="http://www.w3.org/2000/svg">
  <defs
     id="defs6" />
  <sodipodi:namedview
     id="namedview4"
     pagecolor="#ffffff"
     bordercolor="#000000"
     borderopacity="0.25"
     inkscape:showpageshadow="2"
     inkscape:pageopacity="0.0"
     inkscape:pagecheckerboard="0"
     inkscape:deskcolor="#d1d1d1"
     showgrid="false"
     inkscape:zoom="1.9609756"
     inkscape:cx="160.37935"
     inkscape:cy="117.54353"
     inkscape:window-width="1920"
     inkscape:window-height="991"
     inkscape:window-x="-9"
     inkscape:window-y="-9"
     inkscape:window-maximized="1"
     inkscape:current-layer="g8" />
  <g
     inkscape:groupmode="layer"
     inkscape:label="Image"
     id="g8">
    <path
       style="fill:none;stroke:#5e6fba;stroke-width:5;stroke-linecap:round;stroke-dasharray:none"
       d="m 76.237562,121.36816 c 0,0 -0.561203,-14.42046 10.402728,-22.834642 5.03965,-3.867638 23.94369,-10.965265 40.29855,13.685092 3.92525,5.91621 8.27104,-16.189889 37.95688,-45.035997 7.2909,-7.084661 74.23521,-42.628361 76.36354,-58.9975171 0.69326,-5.331873 3.02996,43.9593191 -6.4242,66.0196661 -3.90623,9.11481 -10.83115,24.750662 -48.12262,33.030368 -8.47857,1.88247 12.64463,3.405 20.92673,1.72013 7.48768,-1.52325 -10.52332,10.37607 -20.84812,12.4808 -40.1668,8.18811 16.76741,2.52413 -29.968,11.95088"
       id="path956"
       sodipodi:nodetypes="cssssssssc" />
    <path
       style="fill:none;stroke:#5e6fba;stroke-width:5;stroke-linecap:round;stroke-dasharray:none"
       d="m 138.70647,125.44776 c 0,0 -2.54975,-11.72885 7.64925,-22.94776 10.19901,-11.218905 10.19901,-11.218905 10.19901,-11.218905"
       id="path1225" />
    <path
       style="fill:none;stroke:#5e6fba;stroke-width:5;stroke-linecap:round;stroke-dasharray:none"
       d="m 161.39925,85.671642 c 2.29478,-2.549751 2.54975,-2.804727 2.54975,-2.804727"
       id="path1227" />
    <path
       style="fill:none;stroke:#5e6fba;stroke-width:5;stroke-linecap:round;stroke-dasharray:none"
       d="M 269.50871,106.5796 Z"
       id="path1229" />
    <path
       style="fill:none;stroke:#5e6fba;stroke-width:5;stroke-linecap:round;stroke-dasharray:none"
       d="m 76.237562,121.36816 c 0,0 -2.039801,0.15547 -4.334577,6.5796 -2.294776,6.42413 -1.828572,6.56068 -1.828572,6.56068 0,0 -0.773092,1.88571 10.176032,0.0263 l 4.383176,-1.13899 v 0 c 4.494699,-6.87425 2.822847,-9.98778 -2.786606,-11.00768 z"
       id="path1231"
       sodipodi:nodetypes="cscsccsc" />
    <path
       style="fill:none;stroke:#5e6fba;stroke-width:5;stroke-linecap:butt;stroke-linejoin:round;stroke-dasharray:none"
       d="m 96.997995,94.696972 c 0,0 -3.932075,-15.017246 13.278745,-37.837519 17.21082,-22.820274 17.97575,-27.919777 17.97575,-27.919777 0,0 1.61298,18.234951 4.33457,26.899876 2.31809,7.380277 3.43842,8.662901 10.07152,20.90796 l 4.48482,10.278447"
       id="path1233"
       sodipodi:nodetypes="cscacc" />
    <path
       style="fill:none;stroke:#5e6fba;stroke-width:5;stroke-linecap:round;stroke-linejoin:round;stroke-dasharray:none"
       d="m 84.633621,133.39575 9.498062,10.83996 c 0,0 -1.527841,8.71736 9.357437,16.94769 0,0 8.51906,7.19646 14.42357,9.01474 10.02221,3.0863 3.5392,3.81844 31.52208,3.06501 15.80037,-0.42542 32.4644,-13.46738 37.89136,-21.09447 l 6.6709,-9.37533"
       id="path1961"
       sodipodi:nodetypes="ccssssc" />
    <path
       style="fill:none;stroke:#5e6fba;stroke-width:5;stroke-linecap:round;stroke-linejoin:round;stroke-dasharray:none"
       d="M 192.26881,119.74235 Z"
       id="path1963" />
    <path
       style="fill:none;stroke:#5e6fba;stroke-width:5;stroke-linecap:round;stroke-linejoin:round;stroke-dasharray:none"
       d="m 186.79105,121.43606 c 0,0 20.35322,3.63339 33.3487,19.19376 0,0 9.74979,9.07306 13.7024,16.40681 -1.24339,15.53116 -26.7775,15.89187 -35.15745,16.58711 0.53884,-7.07463 -5.61256,-17.40306 -9.91564,-23.48297"
       id="path1965"
       sodipodi:nodetypes="csccc" />
    <path
       style="fill:none;stroke:#5e6fba;stroke-width:5;stroke-linecap:round;stroke-linejoin:round;stroke-dasharray:none"
       d="m 18.103234,84.269279 c 0,0 13.697593,23.330221 49.429642,39.393661 35.732054,16.06343 35.732054,16.06343 35.732054,16.06343 0,0 15.69641,5.60945 32.70828,32.38184 17.01186,26.77239 17.01186,26.77239 17.01186,26.77239"
       id="path3433" />
    <path
       style="fill:none;stroke:#5e6fba;stroke-width:5;stroke-linecap:round;stroke-linejoin:round;stroke-dasharray:none"
       d="m 18.103234,84.269279 c 0,0 7.717319,-8.523279 0.50995,-16.700871 L 5.3544776,52.524876 C -6.3550128,81.769279 17.888247,84.129062 18.103234,84.269279"
       id="path3437"
       sodipodi:nodetypes="cscc" />
    <path
       style="fill:none;stroke:#5e6fba;stroke-width:5;stroke-linecap:round;stroke-linejoin:round;stroke-dasharray:none"
       d="m 27.412192,95.894205 c -3.269177,-15.52729 -1.166575,-11.624926 1.654972,-29.090722 0,0 11.904829,14.853137 11.473881,23.585199 -0.220329,4.464383 -7.024985,11.422038 -7.024985,11.422038"
       id="path3439"
       sodipodi:nodetypes="ccac" />
    <path
       style="fill:none;stroke:#5e6fba;stroke-width:5;stroke-linecap:round;stroke-linejoin:round;stroke-dasharray:none"
       d="m 27.412192,95.894205 c 0,0 0,0 -15.510533,-3.08326 -25.408329,2.519273 15.259098,26.125115 21.614401,8.999775"
       id="path3441"
       sodipodi:nodetypes="ccc" />
    <path
       style="fill:none;stroke:#5e6fba;stroke-width:5;stroke-linecap:round;stroke-linejoin:round;stroke-dasharray:none"
       d="m 50.936578,114.84032 c 0,0 -10.395533,-24.451638 0.823372,-37.072907 17.824305,17.56076 11.147673,24.264367 9.689055,41.083527 v 0 0"
       id="path3443"
       sodipodi:nodetypes="ccccc" />
    <path
       style="fill:none;stroke:#5e6fba;stroke-width:5;stroke-linecap:round;stroke-linejoin:round;stroke-dasharray:none"
       d="m 50.936578,114.84032 c 0,0 -32.355858,-1.33601 -37.167921,16.05543 31.885545,13.55611 35.090083,6.97919 47.680348,-12.04481"
       id="path3464"
       sodipodi:nodetypes="ccc" />
  </g>
</svg>
