<?xml version="1.0" encoding="UTF-8" standalone="no"?>
<!-- Created with Inkscape (http://www.inkscape.org/) -->

<svg
   version="1.1"
   id="svg2"
   width="820"
   height="676"
   viewBox="0 0 820 676"
   sodipodi:docname="sakura.svg"
   inkscape:version="1.2 (dc2aedaf03, 2022-05-15)"
   inkscape:export-filename="sakura.png"
   inkscape:export-xdpi="96"
   inkscape:export-ydpi="96"
   xmlns:inkscape="http://www.inkscape.org/namespaces/inkscape"
   xmlns:sodipodi="http://sodipodi.sourceforge.net/DTD/sodipodi-0.dtd"
   xmlns="http://www.w3.org/2000/svg"
   xmlns:svg="http://www.w3.org/2000/svg">
  <defs
     id="defs6" />
  <sodipodi:namedview
     id="namedview4"
     pagecolor="#ffffff"
     bordercolor="#000000"
     borderopacity="0.25"
     inkscape:showpageshadow="2"
     inkscape:pageopacity="0.0"
     inkscape:pagecheckerboard="0"
     inkscape:deskcolor="#d1d1d1"
     showgrid="false"
     inkscape:zoom="0.42049841"
     inkscape:cx="234.24583"
     inkscape:cy="-58.264192"
     inkscape:window-width="1920"
     inkscape:window-height="991"
     inkscape:window-x="-9"
     inkscape:window-y="-9"
     inkscape:window-maximized="1"
     inkscape:current-layer="g8" />
  <g
     inkscape:groupmode="layer"
     inkscape:label="Image"
     id="g8">
    <path
       style="fill:none;stroke:#ffffff;stroke-width:8;stroke-linecap:round;stroke-dasharray:none"
       d="m 410.83325,397.21659 c 0,0 10.51858,32.1667 10.51858,72.46414 0,65.933 -4.47194,51.73686 -6.70791,77.60529"
       id="path1443"
       sodipodi:nodetypes="csc" />
    <circle
       style="fill:#ffffff;stroke:#ffffff;stroke-width:8;stroke-linecap:round;stroke-dasharray:none"
       id="path1294-0-5-45"
       cx="281.21393"
       cy="253.49007"
       r="14.120149" />
    <circle
       style="fill:#ffffff;stroke:#ffffff;stroke-width:8;stroke-linecap:round;stroke-dasharray:none"
       id="path1294-0-5-3"
       cx="236.17805"
       cy="317.18311"
       r="14.120149" />
    <circle
       style="fill:#ffffff;stroke:#ffffff;stroke-width:8;stroke-linecap:round;stroke-dasharray:none"
       id="path1294-0-5-7"
       cx="355.53046"
       cy="186.53459"
       r="14.120149" />
    <circle
       style="fill:#ffffff;stroke:#ffffff;stroke-width:8;stroke-linecap:round;stroke-dasharray:none"
       id="path1294-0-5-2"
       cx="281.21393"
       cy="168.41444"
       r="14.120149" />
    <path
       style="fill:none;stroke:#ffffff;stroke-width:8;stroke-dasharray:none"
       d="m 295.5398,208.09743 c 0,0 -5.73964,-68.53082 44.58691,-144.451248 21.2201,-32.011711 29.72584,-14.223711 42.50154,-8.219663 12.30014,5.780557 21.30148,9.952185 35.03099,-3.050902 23.96399,-22.696075 38.51882,-3.463703 69.07956,52.905183 10.9151,20.13275 30.64564,74.56374 24.54644,107.7113 37.76099,-18.16837 120.79139,-10.43771 167.24946,13.22424 18.81198,12.46882 -19.70178,42.65817 11.594,61.53791 23.12074,13.948 20.35575,24.32156 -6.77811,58.0737 -30.10427,37.44706 -70.40476,63.91342 -99.39413,71.37529 0,0 46.42955,28.25393 50.72419,153.43312 0.90945,26.50846 -48.56778,3.60427 -53.8889,36.43134 C 569.61813,676 439.01562,579.28614 414.64392,547.28602 c 0,0 -49.90856,65.36773 -143.41155,83.0162 -28.29809,5.3412 -3.61703,-45.35043 -59.67545,-45.45864 -45.22345,-0.0873 6.62594,-156.43889 25.80342,-162.98044 0,0 -176.763098,-83.86314 -103.78754,-119.1744 33.81258,-16.36116 -31.14708,-43.12811 22.44374,-72.07347 55.67317,-30.07006 139.52326,-22.51784 139.52326,-22.51784"
       id="path431"
       sodipodi:nodetypes="cssssccsssssssssssc" />
    <path
       style="fill:none;stroke:#ffffff;stroke-width:3;stroke-dasharray:none"
       d="m 384.48343,318.87864 c 0,0 -1.25518,-14.98681 9.75059,-31.58964 4.64056,-7.00055 6.50066,-3.11055 9.29454,-1.79753 2.68989,1.26413 4.65837,2.17641 7.66084,-0.6672 5.24062,-4.96334 8.42357,-0.75747 15.10682,11.56968 2.38698,4.40278 6.70181,16.30615 5.36799,23.55509 8.25785,-3.97319 26.41553,-2.28259 36.57533,2.89198 4.11393,2.72677 -4.30854,9.3288 2.53545,13.45756 5.05621,3.05024 4.45155,5.31881 -1.48228,12.69998 -6.58342,8.18919 -15.39663,13.97705 -21.73623,15.60886 0,0 10.15355,6.17877 11.09273,33.55386 0.19889,5.79707 -10.62115,0.78821 -11.78482,7.96708 -2.44353,15.07461 -31.00463,-6.07548 -36.3344,-13.0735 0,0 -10.91438,14.29509 -31.36229,18.15459 -6.18842,1.16805 -0.79099,-9.91756 -13.05025,-9.94122 -9.8898,-0.0191 1.44901,-34.2112 5.64288,-35.64175 0,0 -36.90061,-15.33793 -22.69701,-26.06192 6.5558,-4.94976 -6.81148,-9.43157 4.90816,-15.76155 12.17501,-6.57594 30.51195,-4.92437 30.51195,-4.92437"
       id="path431-1"
       sodipodi:nodetypes="cssssccsssssssssssc" />
    <path
       style="fill:none;stroke:#ffffff;stroke-width:8;stroke-linecap:round;stroke-dasharray:none"
       d="m 576.39933,309.24553 c 0,0 -32.29997,13.22514 -48.75167,19.02505 C 489.1574,341.84 410.8918,365.1316 410.8918,365.1316 c 0,0 60.94323,-50.34711 89.11009,-78.0062 7.15159,-7.02267 20.21411,-22.26114 20.21411,-22.26114"
       id="path1240"
       sodipodi:nodetypes="cacac" />
    <circle
       style="fill:#ffffff;stroke:#ffffff;stroke-width:8;stroke-linecap:round;stroke-dasharray:none"
       id="path1294"
       cx="591.11401"
       cy="305.24554"
       r="14.120149" />
    <circle
       style="fill:#ffffff;stroke:#ffffff;stroke-width:8;stroke-linecap:round;stroke-dasharray:none"
       id="path1294-0"
       cx="529.13397"
       cy="252.0818"
       r="14.120149" />
    <circle
       style="fill:#ffffff;stroke:#ffffff;stroke-width:8;stroke-linecap:round;stroke-dasharray:none"
       id="path1294-0-5"
       cx="529.13397"
       cy="156.62671"
       r="14.120149" />
    <circle
       style="fill:#ffffff;stroke:#ffffff;stroke-width:8;stroke-linecap:round;stroke-dasharray:none"
       id="path1294-0-5-4"
       cx="459.495"
       cy="178.22423"
       r="14.120149" />
    <circle
       style="fill:#ffffff;stroke:#ffffff;stroke-width:8;stroke-linecap:round;stroke-dasharray:none"
       id="path1294-0-5-1"
       cx="403.23169"
       cy="125.69901"
       r="14.120149" />
    <path
       style="fill:none;stroke:#ffffff;stroke-width:8;stroke-linecap:round;stroke-dasharray:none"
       d="m 522.89139,172.41444 c 0,0 0,0 -19.32231,44.29268 -19.3223,44.29268 -92.67728,148.42448 -92.67728,148.42448 0,0 24.00877,-59.54186 34.11583,-114.83339 10.10705,-55.29153 10.10705,-55.29153 10.10705,-55.29153"
       id="path1326" />
    <path
       style="fill:none;stroke:#ffffff;stroke-width:8;stroke-linecap:round;stroke-dasharray:none"
       d="m 405.17394,143.87688 c 0,0 0,0 8.91799,86.50449 8.91799,86.50449 -3.20013,134.75023 -3.20013,134.75023 0,0 4.09193,-7.22299 -22.66203,-86.59309 -26.75397,-79.3701 -26.75397,-79.3701 -26.75397,-79.3701"
       id="path1328" />
    <path
       style="fill:none;stroke:#ffffff;stroke-width:8;stroke-linecap:round;stroke-dasharray:none"
       d="m 289.53736,182.22423 c 0,0 0,0 57.37239,78.64003 57.3724,78.64003 63.98205,104.26734 63.98205,104.26734 0,0 -9.87958,-19.80204 -63.09025,-59.88606 -53.21066,-40.08401 -53.50793,-40.08401 -53.50793,-40.08401"
       id="path1330" />
    <path
       style="fill:none;stroke:#ffffff;stroke-width:8;stroke-linecap:round;stroke-dasharray:none"
       d="m 410.8918,365.1316 c 0,0 -25.6347,-21.78904 -93.11414,-34.86876 -67.47945,-13.07972 -67.47945,-13.07972 -67.47945,-13.07972"
       id="path1332" />
    <path
       style="fill:none;stroke:#ffffff;stroke-width:8;stroke-linecap:round;stroke-dasharray:none"
       d="m 237.36034,421.86314 c 0,0 63.76233,8.21107 92.0215,-1.88553 l 41.2839,-14.75016"
       id="path2172"
       sodipodi:nodetypes="csc" />
    <path
       style="fill:none;stroke:#ffffff;stroke-width:8;stroke-linecap:round;stroke-dasharray:none"
       d="m 587.94,416.08018 c 0,0 -29.03799,8.72506 -73.79324,-3.15044 l -52.79265,-14.00817"
       id="path2174"
       sodipodi:nodetypes="csc" />
    <path
       style="fill:none;stroke:#ffffff;stroke-width:8;stroke-linecap:round;stroke-dasharray:none"
       d="m 511.28524,212.9921 c 0,0 8.561,-3.43599 -19.62977,49.33626 -10.65445,19.9448 -19.01809,27.0864 -37.44149,53.54867"
       id="path2902"
       sodipodi:nodetypes="csc" />
    <path
       style="fill:none;stroke:#ffffff;stroke-width:8;stroke-linecap:round;stroke-dasharray:none"
       d="m 285.53736,207.04602 c 0,0 42.84168,18.12517 62.55219,46.44404 l 35.65932,51.23315"
       id="path2904"
       sodipodi:nodetypes="csc" />
  </g>
</svg>
