<svg width="345" height="216" viewBox="0 0 345 216" fill="none" xmlns="http://www.w3.org/2000/svg">
<path d="M156.929 176.766L184.221 19.6577L231.802 20.0168L219.054 91.4787H231.084L237.189 91.1196L240.241 90.7605L242.935 89.8628L244.73 88.7854L245.807 87.5286L247.064 85.5535L247.962 83.5784L249.039 78.9101L250.476 71.728L251.014 67.4187L250.655 65.4436L249.758 63.8276L248.321 62.3912L246.885 61.4935L243.832 60.5957L237.728 60.2366L230.905 60.057L235.573 20.0168L259.633 20.1964H264.481H266.995L271.843 20.735L277.768 22.351L281.179 23.6079L284.411 25.0443L288.9 27.9171L291.234 29.7127L295.005 33.6628L296.441 35.6379L297.698 37.613L298.955 39.7676L299.853 42.1018L301.469 46.9497L302.187 52.1567L302.546 57.5433L302.367 62.9299L301.648 71.1893L300.212 78.9101L298.237 86.4513L295.544 93.8129L293.03 100.097L289.618 106.022L286.027 111.589L281.898 116.616L276.331 121.284L270.227 124.696L286.566 176.946H234.137L222.466 130.262H212.411L204.331 176.946L156.929 176.766Z" fill="#1E2877"/>
<path d="M224.261 62.0321L231.264 20.0168H237.009L236.112 60.0571H224.62L224.261 62.0321Z" fill="#1E2877"/>
<path d="M234.137 176.946L222.645 130.262H212.411L204.331 176.946L156.749 176.766L184.221 19.8373L266.815 20.1964C266.815 20.1964 302.367 21.4533 302.546 57.0047C302.697 86.8413 289.821 106.434 285.678 111.962C284.858 113.056 284.012 114.119 283.111 115.147C281.993 116.422 280.205 118.283 277.947 120.028C273.997 123.08 270.227 124.696 270.227 124.696L286.745 176.946H234.137Z" stroke="#1E2877"/>
<path d="M259.862 180.896H218.626H66.1415H53.9958L44.659 192.028L32.2699 206.931L319.491 207.111H322.457H323.051L323.792 207.065L324.534 207.02C324.929 206.96 325.328 206.93 325.728 206.93L326.766 206.93C328.889 206.931 331.001 206.618 333.033 206.002L335.893 205.136L337.228 204.314C337.892 203.906 338.506 203.42 339.058 202.869L339.125 202.801L339.664 201.868V201.325V200.241V199.879C339.664 199.643 339.595 199.412 339.465 199.215L339.367 199.065L338.587 197.594L337.15 196.158L332.841 193.465L327.993 192.387L325.12 191.669L319.734 190.233L313.449 188.617L308.063 186.821L306.626 186.462L303.215 184.846L295.673 181.794L292.98 181.075L290.107 180.896H270.536H265.15H261.938H259.862Z" fill="white"/>
<path d="M339.534 202.263V199.929L38.6037 199.39L32.2699 206.931H326.426L329.479 206.931L330.736 206.752L333.788 205.854L335.943 205.136L337.559 204.238L338.816 203.34L339.305 202.801L339.534 202.263Z" fill="#1E2877"/>
<path d="M300.088 185.305L295.135 181.614L304.759 185.718L309.679 187.539L314.706 188.976L319.913 190.233L313.218 189.959C311.003 189.868 308.812 189.466 306.709 188.763C304.332 187.97 302.097 186.802 300.088 185.305Z" fill="black" stroke="black" stroke-width="0.5"/>
<g filter="url(#filter0_d_94_406)">
<path d="M291.263 180.896H266.306H53.9958L32.2699 206.931H327.353H329.149H329.508L329.957 206.886L330.038 206.878C330.283 206.854 330.526 206.811 330.765 206.752L331.124 206.662L331.866 206.444L332.943 206.085L333.099 206.033L333.638 205.854L334.176 205.674L334.446 205.584L334.984 205.405L335.703 205.136L336.152 204.956L336.87 204.597L337.319 204.328L337.768 204.058L338.127 203.789L338.486 203.52L338.665 203.34L338.845 203.16L339.024 202.981C339.144 202.861 339.251 202.731 339.345 202.59L339.384 202.532L339.43 202.417C339.518 202.196 339.563 201.961 339.563 201.724V201.185V200.108V199.749C339.563 199.512 339.518 199.277 339.43 199.056L339.384 198.941C339.264 198.642 339.121 198.353 338.955 198.078L338.665 197.594C338.188 196.998 337.646 196.456 337.049 195.978L336.331 195.44L335.433 194.901L334.805 194.542L334.176 194.183L333.458 193.824L333.099 193.644C332.86 193.525 332.613 193.422 332.359 193.338L332.201 193.285L331.483 193.106L327.713 192.208L323.403 191.13L319.633 190.233L315.323 189.155L312.271 188.258L309.398 187.36L306.705 186.462L301.857 184.307L295.752 181.794L295.087 181.544C294.574 181.352 294.046 181.201 293.509 181.094C292.851 180.962 292.183 180.896 291.512 180.896H291.263Z" stroke="#1E2877" shape-rendering="crispEdges"/>
</g>
<rect x="287.134" y="188.078" width="5.74568" height="6.46389" rx="2.87284" fill="#1E2877"/>
<rect x="278.515" y="188.078" width="5.74568" height="6.46389" rx="2.87284" fill="#1E2877"/>
<rect x="261.738" y="188.078" width="14.3642" height="6.46389" rx="3.23195" fill="#1E2877"/>
<rect x="261.738" y="188.078" width="5.74568" height="6.46389" rx="2.87284" fill="#1E2877"/>
<rect x="244.501" y="188.078" width="14.3642" height="6.46389" rx="3.23195" fill="#1E2877"/>
<rect x="244.501" y="188.078" width="5.74568" height="6.46389" rx="2.87284" fill="#1E2877"/>
<rect x="227.264" y="188.078" width="5.74568" height="6.46389" rx="2.87284" fill="#1E2877"/>
<rect x="218.646" y="188.078" width="5.74568" height="6.46389" rx="2.87284" fill="#1E2877"/>
<rect x="201.408" y="188.078" width="14.3642" height="6.46389" rx="3.23195" fill="#1E2877"/>
<rect x="201.408" y="188.078" width="5.74568" height="6.46389" rx="2.87284" fill="#1E2877"/>
<rect x="192.79" y="188.078" width="5.74568" height="6.46389" rx="2.87284" fill="#1E2877"/>
<rect x="175.553" y="188.078" width="5.74568" height="6.46389" rx="2.87284" fill="#1E2877"/>
<rect x="166.934" y="188.078" width="5.74568" height="6.46389" rx="2.87284" fill="#1E2877"/>
<rect x="141.079" y="188.078" width="14.3642" height="6.46389" rx="3.23195" fill="#1E2877"/>
<rect x="141.079" y="188.078" width="5.74568" height="6.46389" rx="2.87284" fill="#1E2877"/>
<rect x="132.46" y="188.078" width="5.74568" height="6.46389" rx="2.87284" fill="#1E2877"/>
<rect x="115.223" y="188.078" width="5.74568" height="6.46389" rx="2.87284" fill="#1E2877"/>
<rect x="97.9862" y="188.078" width="14.3642" height="6.46389" rx="3.23195" fill="#1E2877"/>
<rect x="97.9862" y="188.078" width="5.74568" height="6.46389" rx="2.87284" fill="#1E2877"/>
<rect x="89.3677" y="188.078" width="5.74568" height="6.46389" rx="2.87284" fill="#1E2877"/>
<path d="M136.838 32.9946L110.398 64.6387L12.8782 181.614L6.5939 189.155L6.23479 190.233L7.31211 197.235L7.85076 199.21L8.92808 201.724L9.82584 203.699L11.2623 205.674L13.776 206.931L28.3198 207.111L29.2175 206.392L175.732 27.7375L176.989 25.942L177.169 23.9669L177.169 22.1922L177.169 18.5804L176.63 14.9893L175.732 11.5778L174.835 9.42317L173.039 7.62764L170.884 6.55033L169.268 6.19123L159.214 6.01167L143.682 24.8032L140.228 28.9368L138.169 31.401L136.838 32.9946Z" fill="white"/>
<path d="M28.6789 206.931L176.321 27.0194L176.81 25.942L177.169 24.8048L177.169 21.9918L177.169 19.0126L176.859 16.0667L17.4166 207.111L28.6789 206.931Z" fill="#1E2877"/>
<g filter="url(#filter1_d_94_406)">
<path d="M156.972 8.89721L140.969 28.0496L7.40102 188.117C6.6569 189.008 6.31485 190.168 6.45601 191.321L6.98734 195.66C7.20234 197.416 7.70797 199.124 8.48352 200.714L10.0333 203.891C10.5968 205.046 11.5321 205.978 12.6891 206.538C13.4676 206.915 14.3213 207.11 15.1861 207.11L26.2901 207.11C27.7881 207.11 29.2071 206.439 30.1568 205.281L176.123 27.2393C176.341 26.9737 176.528 26.6847 176.682 26.3775C177.002 25.7368 177.169 25.0304 177.169 24.3141L177.169 20.132C177.169 18.8604 177.06 17.5912 176.844 16.3381L176.448 14.0401C176.33 13.3576 176.149 12.6878 175.905 12.0393L175.49 10.9318C174.947 9.48391 173.963 8.24338 172.676 7.38562C171.506 6.60559 170.137 6.1764 168.731 6.14865L162.625 6.02813L159.205 6.02813L156.972 8.89721Z" stroke="#1E2877" shape-rendering="crispEdges"/>
</g>
<rect x="159.836" y="16.6714" width="5.74568" height="6.46389" rx="2.87284" transform="rotate(-50.12 159.836 16.6714)" fill="#1E2877"/>
<rect x="154.31" y="23.2852" width="5.74568" height="6.46389" rx="2.87284" transform="rotate(-50.12 154.31 23.2852)" fill="#1E2877"/>
<rect x="149.014" y="29.6234" width="5.74568" height="6.46389" rx="2.87284" transform="rotate(-50.12 149.014 29.6234)" fill="#1E2877"/>
<rect x="143.552" y="36.1598" width="5.74568" height="6.46389" rx="2.87284" transform="rotate(-50.12 143.552 36.1598)" fill="#1E2877"/>
<rect x="132.5" y="49.3873" width="5.74568" height="6.46389" rx="2.87284" transform="rotate(-50.12 132.5 49.3873)" fill="#1E2877"/>
<rect x="126.974" y="56.0011" width="5.74568" height="6.46389" rx="2.87284" transform="rotate(-50.12 126.974 56.0011)" fill="#1E2877"/>
<rect x="115.922" y="69.2286" width="5.74568" height="6.46389" rx="2.87284" transform="rotate(-50.12 115.922 69.2286)" fill="#1E2877"/>
<rect x="110.396" y="75.8424" width="5.74568" height="6.46389" rx="2.87284" transform="rotate(-50.12 110.396 75.8424)" fill="#1E2877"/>
<rect x="104.87" y="82.4561" width="5.74568" height="6.46389" rx="2.87284" transform="rotate(-50.12 104.87 82.4561)" fill="#1E2877"/>
<rect x="99.344" y="89.0699" width="5.74568" height="6.46389" rx="2.87284" transform="rotate(-50.12 99.344 89.0699)" fill="#1E2877"/>
<rect x="88.2919" y="102.297" width="5.74568" height="6.46389" rx="2.87284" transform="rotate(-50.12 88.2919 102.297)" fill="#1E2877"/>
<rect x="82.7659" y="108.911" width="5.74568" height="6.46389" rx="2.87284" transform="rotate(-50.12 82.7659 108.911)" fill="#1E2877"/>
<rect x="71.7137" y="122.139" width="5.74568" height="6.46389" rx="2.87284" transform="rotate(-50.12 71.7137 122.139)" fill="#1E2877"/>
<rect x="66.1877" y="128.752" width="14.3631" height="6.46389" rx="3.23195" transform="rotate(-50.12 66.1877 128.752)" fill="#1E2877"/>
<rect x="60.6617" y="135.366" width="5.74568" height="6.46389" rx="2.87284" transform="rotate(-50.12 60.6617 135.366)" fill="#1E2877"/>
<rect x="55.1356" y="141.98" width="14.3641" height="6.46389" rx="3.23195" transform="rotate(-50.12 55.1356 141.98)" fill="#1E2877"/>
<rect x="49.6096" y="148.594" width="5.74568" height="6.46389" rx="2.87284" transform="rotate(-50.12 49.6096 148.594)" fill="#1E2877"/>
<rect x="44.0836" y="155.207" width="5.74568" height="6.46389" rx="2.87284" transform="rotate(-50.12 44.0836 155.207)" fill="#1E2877"/>
<rect x="33.0315" y="168.435" width="5.74568" height="6.46389" rx="2.87284" transform="rotate(-50.12 33.0315 168.435)" fill="#1E2877"/>
<rect x="21.9794" y="181.663" width="5.74568" height="6.46389" rx="2.87284" transform="rotate(-50.12 21.9794 181.663)" fill="#1E2877"/>
<rect x="16.4534" y="188.276" width="14.3638" height="6.46389" rx="3.23195" transform="rotate(-50.12 16.4534 188.276)" fill="#1E2877"/>
<rect x="10.9274" y="194.89" width="5.74568" height="6.46389" rx="2.87284" transform="rotate(-50.12 10.9274 194.89)" fill="#1E2877"/>
<path d="M109.917 6.01175H155.443L133.717 32.0469L47.3217 32.2264H46.7284L45.9867 32.1812L45.2451 32.136C44.8501 32.0758 44.4511 32.0457 44.0516 32.0458L43.0137 32.046C40.8903 32.0466 38.7784 31.7339 36.7463 31.1181L33.8859 30.2513L32.5516 29.4302C31.8873 29.0214 31.2731 28.5363 30.7215 27.9847L30.654 27.9172L30.1153 26.9835V26.4411V25.3564V24.9948C30.1153 24.7589 30.1843 24.5281 30.3137 24.3309L30.412 24.1812L31.1926 22.7101L32.629 21.2737L36.9383 18.5804L41.7862 17.5031L44.6591 16.7849L50.0456 15.3485L56.33 13.7325L61.7166 11.937L63.153 11.5779L66.5645 9.96191L74.1057 6.90951L76.799 6.1913L79.6718 6.01175H99.243H104.63H107.841H109.917Z" fill="white"/>
<path d="M30.3444 27.5581L30.1648 25.0443H139.512L133.717 32.0469H40.7089L37.8361 31.5082L34.6041 30.4309L32.4495 29.3536L31.2421 28.6354L30.3444 27.5581Z" fill="#1E2877"/>
<path d="M69.6911 10.4208L74.6443 6.73001L65.0197 10.8341L60.1005 12.6552L55.0731 14.0917L49.866 15.3485L56.5609 15.0747C58.776 14.9841 60.9674 14.5817 63.0702 13.8793C65.4468 13.0854 67.6818 11.918 69.6911 10.4208Z" fill="black" stroke="black" stroke-width="0.5"/>
<g filter="url(#filter2_d_94_406)">
<path d="M78.5157 6.01175H103.474H155.443L133.717 32.0469H42.4257H40.6301H40.271L39.8222 32.002L39.7416 31.9939C39.4964 31.9694 39.2533 31.9271 39.0142 31.8673L38.6551 31.7775L37.9133 31.5602L36.836 31.2011L36.68 31.1491L36.1413 30.9696L35.6027 30.79L35.3333 30.7002L34.7947 30.5207L34.0765 30.2513L33.6276 30.0718L32.9094 29.7127L32.4605 29.4434L32.0116 29.174L31.6525 28.9047L31.2934 28.6354L31.1139 28.4558L30.9343 28.2763L30.7547 28.0967C30.6353 27.9773 30.528 27.8464 30.4343 27.7059L30.3956 27.6478L30.3495 27.5324C30.2614 27.3121 30.2161 27.0771 30.2161 26.8398V26.3012V25.2239V24.8648C30.2161 24.6275 30.2614 24.3925 30.3495 24.1722L30.3956 24.0568C30.5152 23.758 30.6584 23.4693 30.8239 23.1933L31.1139 22.7101C31.5912 22.1135 32.1332 21.5715 32.7298 21.0942L33.448 20.5555L34.3458 20.0168L34.9742 19.6577L35.6027 19.2986L36.3209 18.9395L36.68 18.76C36.9191 18.6404 37.1664 18.538 37.42 18.4535L37.5777 18.4009L38.296 18.2213L42.0666 17.3236L46.3758 16.2462L50.1464 15.3485L54.4557 14.2712L57.5081 13.3734L60.3809 12.4756L63.0742 11.5779L67.9221 9.42325L74.0269 6.90951L74.6926 6.65988C75.2056 6.46751 75.7333 6.31687 76.2705 6.20942C76.9278 6.07796 77.5965 6.01175 78.2668 6.01175H78.5157Z" stroke="#1E2877" shape-rendering="crispEdges"/>
</g>
<rect width="5.74568" height="6.46389" rx="2.87284" transform="matrix(-1 0 0 1 82.6454 13.1938)" fill="#1E2877"/>
<rect width="5.74568" height="6.46389" rx="2.87284" transform="matrix(-1 0 0 1 91.2639 13.1938)" fill="#1E2877"/>
<rect width="5.74568" height="6.46389" rx="2.87284" transform="matrix(-1 0 0 1 99.5233 13.1938)" fill="#1E2877"/>
<rect width="5.74568" height="6.46389" rx="2.87284" transform="matrix(-1 0 0 1 108.041 13.1938)" fill="#1E2877"/>
<rect width="5.74568" height="6.46389" rx="2.87284" transform="matrix(-1 0 0 1 125.278 13.1938)" fill="#1E2877"/>
<rect width="5.74568" height="6.46389" rx="2.87284" transform="matrix(-1 0 0 1 133.897 13.1938)" fill="#1E2877"/>
<defs>
<filter id="filter0_d_94_406" x="27.2014" y="180.396" width="316.862" height="35.0351" filterUnits="userSpaceOnUse" color-interpolation-filters="sRGB">
<feFlood flood-opacity="0" result="BackgroundImageFix"/>
<feColorMatrix in="SourceAlpha" type="matrix" values="0 0 0 0 0 0 0 0 0 0 0 0 0 0 0 0 0 0 127 0" result="hardAlpha"/>
<feOffset dy="4"/>
<feGaussianBlur stdDeviation="2"/>
<feComposite in2="hardAlpha" operator="out"/>
<feColorMatrix type="matrix" values="0 0 0 0 0 0 0 0 0 0 0 0 0 0 0 0 0 0 0.25 0"/>
<feBlend mode="normal" in2="BackgroundImageFix" result="effect1_dropShadow_94_406"/>
<feBlend mode="normal" in="SourceGraphic" in2="effect1_dropShadow_94_406" result="shape"/>
</filter>
<filter id="filter1_d_94_406" x="1.9248" y="5.52814" width="179.744" height="210.082" filterUnits="userSpaceOnUse" color-interpolation-filters="sRGB">
<feFlood flood-opacity="0" result="BackgroundImageFix"/>
<feColorMatrix in="SourceAlpha" type="matrix" values="0 0 0 0 0 0 0 0 0 0 0 0 0 0 0 0 0 0 127 0" result="hardAlpha"/>
<feOffset dy="4"/>
<feGaussianBlur stdDeviation="2"/>
<feComposite in2="hardAlpha" operator="out"/>
<feColorMatrix type="matrix" values="0 0 0 0 0 0 0 0 0 0 0 0 0 0 0 0 0 0 0.25 0"/>
<feBlend mode="normal" in2="BackgroundImageFix" result="effect1_dropShadow_94_406"/>
<feBlend mode="normal" in="SourceGraphic" in2="effect1_dropShadow_94_406" result="shape"/>
</filter>
<filter id="filter2_d_94_406" x="25.7161" y="5.51175" width="134.795" height="35.0351" filterUnits="userSpaceOnUse" color-interpolation-filters="sRGB">
<feFlood flood-opacity="0" result="BackgroundImageFix"/>
<feColorMatrix in="SourceAlpha" type="matrix" values="0 0 0 0 0 0 0 0 0 0 0 0 0 0 0 0 0 0 127 0" result="hardAlpha"/>
<feOffset dy="4"/>
<feGaussianBlur stdDeviation="2"/>
<feComposite in2="hardAlpha" operator="out"/>
<feColorMatrix type="matrix" values="0 0 0 0 0 0 0 0 0 0 0 0 0 0 0 0 0 0 0.25 0"/>
<feBlend mode="normal" in2="BackgroundImageFix" result="effect1_dropShadow_94_406"/>
<feBlend mode="normal" in="SourceGraphic" in2="effect1_dropShadow_94_406" result="shape"/>
</filter>
</defs>
</svg>
