<?xml version="1.0" encoding="UTF-8" standalone="no"?>
<!-- Created with Inkscape (http://www.inkscape.org/) -->

<svg
   version="1.1"
   id="svg2"
   width="1024"
   height="512"
   viewBox="0 0 1024 512"
   sodipodi:docname="Skirt.svg"
   inkscape:version="1.2 (dc2aedaf03, 2022-05-15)"
   inkscape:export-filename="Skirt.png"
   inkscape:export-xdpi="96"
   inkscape:export-ydpi="96"
   xml:space="preserve"
   xmlns:inkscape="http://www.inkscape.org/namespaces/inkscape"
   xmlns:sodipodi="http://sodipodi.sourceforge.net/DTD/sodipodi-0.dtd"
   xmlns="http://www.w3.org/2000/svg"
   xmlns:svg="http://www.w3.org/2000/svg"><defs
     id="defs6"><inkscape:path-effect
       effect="simplify"
       id="path-effect1619"
       is_visible="true"
       lpeversion="1"
       steps="1"
       threshold="0.00172414"
       smooth_angles="360"
       helper_size="0"
       simplify_individual_paths="false"
       simplify_just_coalesce="false" /><inkscape:path-effect
       effect="simplify"
       id="path-effect1424"
       is_visible="true"
       lpeversion="1"
       steps="1"
       threshold="0.00172414"
       smooth_angles="360"
       helper_size="0"
       simplify_individual_paths="false"
       simplify_just_coalesce="false" /><inkscape:path-effect
       effect="simplify"
       id="path-effect1017"
       is_visible="true"
       lpeversion="1"
       steps="1"
       threshold="0.00172414"
       smooth_angles="360"
       helper_size="0"
       simplify_individual_paths="false"
       simplify_just_coalesce="false" /><inkscape:path-effect
       effect="simplify"
       id="path-effect364"
       is_visible="true"
       lpeversion="1"
       steps="1"
       threshold="0.00172414"
       smooth_angles="360"
       helper_size="0"
       simplify_individual_paths="false"
       simplify_just_coalesce="false" /><inkscape:path-effect
       effect="simplify"
       id="path-effect1424-7"
       is_visible="true"
       lpeversion="1"
       steps="1"
       threshold="0.00172414"
       smooth_angles="360"
       helper_size="0"
       simplify_individual_paths="false"
       simplify_just_coalesce="false" /><filter
       inkscape:collect="always"
       style="color-interpolation-filters:sRGB"
       id="filter8838"
       x="-0.19185165"
       y="-4.5713462"
       width="1.3837033"
       height="10.142692"><feGaussianBlur
         inkscape:collect="always"
         stdDeviation="79.134933"
         id="feGaussianBlur8840" /></filter><filter
       inkscape:collect="always"
       style="color-interpolation-filters:sRGB"
       id="filter8970"
       x="-0.0015027889"
       y="-3.3457439"
       width="1.0030056"
       height="7.6914879"><feGaussianBlur
         inkscape:collect="always"
         stdDeviation="0.63982245"
         id="feGaussianBlur8972" /></filter><filter
       inkscape:collect="always"
       style="color-interpolation-filters:sRGB"
       id="filter9269"
       x="-0.15509309"
       y="-0.0067228189"
       width="1.3098148"
       height="1.0130962"><feGaussianBlur
         inkscape:collect="always"
         stdDeviation="0.67299043"
         id="feGaussianBlur9271" /></filter><filter
       inkscape:collect="always"
       style="color-interpolation-filters:sRGB"
       id="filter9277"
       x="-0.13503642"
       y="-0.0064085225"
       width="1.2701561"
       height="1.0129691"><feGaussianBlur
         inkscape:collect="always"
         stdDeviation="0.7995452"
         id="feGaussianBlur9279" /></filter><filter
       inkscape:collect="always"
       style="color-interpolation-filters:sRGB"
       id="filter9285"
       x="-0.11341065"
       y="-0.0067146144"
       width="1.2270798"
       height="1.0135855"><feGaussianBlur
         inkscape:collect="always"
         stdDeviation="0.8138409"
         id="feGaussianBlur9287" /></filter><filter
       inkscape:collect="always"
       style="color-interpolation-filters:sRGB"
       id="filter9297"
       x="-0.089535366"
       y="-0.0078266827"
       width="1.1761789"
       height="1.0147868"><feGaussianBlur
         inkscape:collect="always"
         stdDeviation="0.82844015"
         id="feGaussianBlur9299" /></filter><filter
       inkscape:collect="always"
       style="color-interpolation-filters:sRGB"
       id="filter9305"
       x="-0.083428003"
       y="-0.0071003994"
       width="1.1665543"
       height="1.0139399"><feGaussianBlur
         inkscape:collect="always"
         stdDeviation="0.83547188"
         id="feGaussianBlur9307" /></filter><filter
       inkscape:collect="always"
       style="color-interpolation-filters:sRGB"
       id="filter9313"
       x="-0.090498885"
       y="-0.007332243"
       width="1.179913"
       height="1.0139589"><feGaussianBlur
         inkscape:collect="always"
         stdDeviation="0.8281772"
         id="feGaussianBlur9315" /></filter><filter
       inkscape:collect="always"
       style="color-interpolation-filters:sRGB"
       id="filter9321"
       x="-0.13379817"
       y="-0.0064581604"
       width="1.2675867"
       height="1.0128754"><feGaussianBlur
         inkscape:collect="always"
         stdDeviation="0.80249345"
         id="feGaussianBlur9323" /></filter><filter
       inkscape:collect="always"
       style="color-interpolation-filters:sRGB"
       id="filter9329"
       x="-0.099529697"
       y="-0.0069522087"
       width="1.1989073"
       height="1.0138104"><feGaussianBlur
         inkscape:collect="always"
         stdDeviation="0.82007458"
         id="feGaussianBlur9331" /></filter><filter
       inkscape:collect="always"
       style="color-interpolation-filters:sRGB"
       id="filter9337"
       x="-0.12478733"
       y="-0.0068455902"
       width="1.2490849"
       height="1.0132747"><feGaussianBlur
         inkscape:collect="always"
         stdDeviation="0.8053865"
         id="feGaussianBlur9339" /></filter><filter
       inkscape:collect="always"
       style="color-interpolation-filters:sRGB"
       id="filter9345"
       x="-0.15830237"
       y="-0.006523169"
       width="1.3166066"
       height="1.0130477"><feGaussianBlur
         inkscape:collect="always"
         stdDeviation="0.79322683"
         id="feGaussianBlur9347" /></filter><filter
       inkscape:collect="always"
       style="color-interpolation-filters:sRGB"
       id="filter9356"
       x="-0.14705011"
       y="-0.0063601645"
       width="1.294593"
       height="1.0131035"><feGaussianBlur
         inkscape:collect="always"
         stdDeviation="0.7961485"
         id="feGaussianBlur9358" /></filter><filter
       inkscape:collect="always"
       style="color-interpolation-filters:sRGB"
       id="filter9364"
       x="-0.31319318"
       y="-0.0062792351"
       width="1.6264746"
       height="1.0125425"><feGaussianBlur
         inkscape:collect="always"
         stdDeviation="0.77199193"
         id="feGaussianBlur9366" /></filter><filter
       inkscape:collect="always"
       style="color-interpolation-filters:sRGB"
       id="filter9373"
       x="-0.50856778"
       y="-0.0083591599"
       width="2.0179562"
       height="1.014488"><feGaussianBlur
         inkscape:collect="always"
         stdDeviation="0.76218895"
         id="feGaussianBlur9375" /></filter><filter
       inkscape:collect="always"
       style="color-interpolation-filters:sRGB"
       id="filter9381"
       x="-0.38524109"
       y="-0.0062580214"
       width="1.770575"
       height="1.0124623"><feGaussianBlur
         inkscape:collect="always"
         stdDeviation="0.7661566"
         id="feGaussianBlur9383" /></filter><filter
       inkscape:collect="always"
       style="color-interpolation-filters:sRGB"
       id="filter9389"
       x="-0.21179695"
       y="-0.0078607375"
       width="1.4234723"
       height="1.0142641"><feGaussianBlur
         inkscape:collect="always"
         stdDeviation="0.78180246"
         id="feGaussianBlur9391" /></filter><filter
       inkscape:collect="always"
       style="color-interpolation-filters:sRGB"
       id="filter9397"
       x="-0.1333556"
       y="-0.0066382527"
       width="1.2667766"
       height="1.0132254"><feGaussianBlur
         inkscape:collect="always"
         stdDeviation="0.79886698"
         id="feGaussianBlur9399" /></filter><filter
       inkscape:collect="always"
       style="color-interpolation-filters:sRGB"
       id="filter9405"
       x="-0.17546661"
       y="-0.0063856122"
       width="1.3507247"
       height="1.0129304"><feGaussianBlur
         inkscape:collect="always"
         stdDeviation="0.78624683"
         id="feGaussianBlur9407" /></filter><filter
       inkscape:collect="always"
       style="color-interpolation-filters:sRGB"
       id="filter9413"
       x="-0.21173469"
       y="-0.0069219195"
       width="1.4231374"
       height="1.0134107"><feGaussianBlur
         inkscape:collect="always"
         stdDeviation="0.7789337"
         id="feGaussianBlur9415" /></filter><filter
       inkscape:collect="always"
       style="color-interpolation-filters:sRGB"
       id="filter9421"
       x="-0.25967785"
       y="-0.0063281674"
       width="1.5191821"
       height="1.0126902"><feGaussianBlur
         inkscape:collect="always"
         stdDeviation="0.7776691"
         id="feGaussianBlur9423" /></filter><filter
       inkscape:collect="always"
       style="color-interpolation-filters:sRGB"
       id="filter9429"
       x="-0.39678812"
       y="-0.0063315146"
       width="1.7931876"
       height="1.0124619"><feGaussianBlur
         inkscape:collect="always"
         stdDeviation="0.76883027"
         id="feGaussianBlur9431" /></filter></defs><sodipodi:namedview
     id="namedview4"
     pagecolor="#ffffff"
     bordercolor="#000000"
     borderopacity="0.25"
     inkscape:showpageshadow="2"
     inkscape:pageopacity="0.0"
     inkscape:pagecheckerboard="0"
     inkscape:deskcolor="#d1d1d1"
     showgrid="false"
     inkscape:zoom="0.35355339"
     inkscape:cx="114.5513"
     inkscape:cy="281.4285"
     inkscape:window-width="1920"
     inkscape:window-height="991"
     inkscape:window-x="-9"
     inkscape:window-y="-9"
     inkscape:window-maximized="1"
     inkscape:current-layer="layer4" /><g
     inkscape:groupmode="layer"
     id="layer4"
     inkscape:label="Base"
     style="display:inline"><rect
       style="display:inline;fill:#00105f;fill-opacity:1;stroke:none;stroke-width:2;stroke-linecap:round;stroke-linejoin:round;stroke-dasharray:none;stroke-opacity:1"
       id="rect2851"
       width="1024"
       height="512"
       x="0"
       y="0"
       rx="5.1362629"
       ry="5.2779713" /></g><g
     inkscape:groupmode="layer"
     id="layer6"
     inkscape:label="Shade"
     style="display:inline"><ellipse
       style="display:inline;mix-blend-mode:normal;fill:#001994;fill-opacity:1;filter:url(#filter8838)"
       id="path8422"
       ry="20.773294"
       rx="494.97577"
       cy="203.32869"
       cx="512"
       transform="matrix(1.0316768,0,0,1,-16.218526,0)"
       inkscape:label="path8422" /><path
       style="display:inline;mix-blend-mode:normal;fill:none;fill-opacity:1;stroke:#00157a;stroke-width:2.30272;stroke-dasharray:none;stroke-opacity:1;filter:url(#filter8970)"
       d="M 0.00757748,201.49249 1022.4254,200.6894"
       id="path8898-3"
       transform="matrix(0.99998394,0,0,1.573388,0.00820772,-115.30313)" /><path
       style="display:inline;mix-blend-mode:normal;fill:none;fill-opacity:1;stroke:#00157a;stroke-width:1.5;stroke-dasharray:none;stroke-opacity:1;filter:url(#filter9269)"
       d="m 1016.3848,248.4308 -12.5,101.0692 -2.5,96.50736 -0.25,56.36958"
       id="path9266" /><path
       style="display:inline;fill:none;fill-opacity:1;stroke:#00157a;stroke-width:1.5;stroke-dasharray:none;stroke-opacity:1;filter:url(#filter9277)"
       d="m 959.75,202.01133 c 0,0 0.13172,24.26845 -1.66196,53.98867 -2.33516,38.69203 -6.89133,87.03082 -8.58804,107.25 -3,35.75 -6.75,82.50736 -6.75,82.50736 L 941.25,483.25 940,502.07725"
       id="path9274"
       sodipodi:nodetypes="cssccc" /><path
       style="display:inline;fill:none;fill-opacity:1;stroke:#00157a;stroke-width:1.5;stroke-dasharray:none;stroke-opacity:1;filter:url(#filter9285)"
       d="m 907.75,200.17056 c 0,0 -1.58786,16.20014 -1.95992,43.0848 C 905.13746,290.41428 905.05466,336.16599 903,352.75 899.5,381 892,444 889.5,463.75 887,483.5 884,501.95692 884,501.95692"
       id="path9282"
       sodipodi:nodetypes="csssc" /><path
       style="display:inline;fill:none;fill-opacity:1;stroke:#00157a;stroke-width:1.5;stroke-dasharray:none;stroke-opacity:1;filter:url(#filter9297)"
       d="m 861.49907,200.97405 c 0,0 -4.44543,7.93372 -4.57656,21.51868 -0.80183,83.06782 -7.87824,110.37198 -11.17251,138.00727 -4.5,37.75 -7.25,88.75548 -11,115.05326 L 831,501.85104"
       id="path9294"
       sodipodi:nodetypes="csssc" /><path
       style="display:inline;fill:none;fill-opacity:1;stroke:#00157a;stroke-width:1.5;stroke-dasharray:none;stroke-opacity:1;filter:url(#filter9305)"
       d="m 814,200.60744 c 0,0 -20.5,113.39256 -24.25,170.64256 -3.75,57.25 -7.5,113.5 -7.5,113.5 L 781,501.79619"
       id="path9302"
       sodipodi:nodetypes="cscc" /><path
       style="display:inline;fill:none;fill-opacity:1;stroke:#00157a;stroke-width:1.5;stroke-dasharray:none;stroke-opacity:1;filter:url(#filter9313)"
       d="m 763,200.76816 c 0,0 -6.41749,20.96409 -10.83524,47.4833 -5.31138,31.88356 -8.84587,71.08003 -9.66476,81.99854 -1.5,20 -7,63.69674 -8.25,104.5 -1.25,40.80326 -1.5,67.03904 -1.5,67.03904"
       id="path9310"
       sodipodi:nodetypes="csssc" /><path
       style="display:inline;fill:none;fill-opacity:1;stroke:#00157a;stroke-width:1.5;stroke-dasharray:none;stroke-opacity:1;filter:url(#filter9321)"
       d="m 709.25,200.78607 c 0,0 -0.52953,22.17439 -3.22701,47.60576 C 703.00045,276.88786 697.70314,309.64332 696.25,323.25 693.5,349 690.5,387.75 690,428 c -0.5,40.25 -0.75,73.78345 -0.75,73.78345"
       id="path9318"
       sodipodi:nodetypes="csssc" /><path
       style="display:inline;fill:none;fill-opacity:1;stroke:#00157a;stroke-width:1.5;stroke-dasharray:none;stroke-opacity:1;filter:url(#filter9329)"
       d="M 666.25,200.90898 649,304.75 c 0,0 -5.5,67.75 -5.5,81 0,13.25 0.25,58.75 -1,78.5 -1.25,19.75 -3.5,37.43881 -3.5,37.43881"
       id="path9326"
       sodipodi:nodetypes="ccssc" /><path
       style="display:inline;fill:none;fill-opacity:1;stroke:#00157a;stroke-width:1.5;stroke-dasharray:none;stroke-opacity:1;filter:url(#filter9337)"
       d="m 619,201.03421 c 0,0 -13.5,79.71579 -16.75,119.96579 -3.25,40.25 -4.75,111.5 -4.75,111.5 v 69.18881"
       id="path9334"
       sodipodi:nodetypes="cscc" /><path
       style="display:inline;fill:none;fill-opacity:1;stroke:#00157a;stroke-width:1.5;stroke-dasharray:none;stroke-opacity:1;filter:url(#filter9345)"
       d="M 564.25,201.09094 556.5,303.25 l -7,95.75 -0.5,83 -1.5,19.63167"
       id="path9342"
       sodipodi:nodetypes="ccccc" /><path
       style="display:inline;fill:none;fill-opacity:1;stroke:#00157a;stroke-width:1.5;stroke-dasharray:none;stroke-opacity:1;filter:url(#filter9356)"
       d="M 510.78378,201.09094 V 247.5 L 503,303.5 c 0,0 -1,59.5 -3,106.75 -2,47.25 -3.75,68.73344 -5.5,80 -1.75,11.26656 -1.75,11.26656 -1.75,11.26656"
       id="path9350" /><path
       style="display:inline;fill:none;fill-opacity:1;stroke:#00157a;stroke-width:1.5;stroke-dasharray:none;stroke-opacity:1;filter:url(#filter9364)"
       d="m 454.25,200.99918 c 0,0 1.75,38.50082 0.75,70.50082 -1,32 -2.5,98.5 -3.25,113 C 451,399 447,501.48731 447,501.48731"
       id="path9361" /><path
       style="display:inline;fill:none;fill-opacity:1;stroke:#00157a;stroke-width:1.5;stroke-dasharray:none;stroke-opacity:1;filter:url(#filter9373)"
       d="m 400.125,201.67603 c 0,0 -2.25,1.07397 -1.75,8.94897 0.5,7.875 5,38.125 5,38.125 l -4.625,55.625 2,151.38236 -0.5,45.72175"
       id="path9370" /><path
       style="display:inline;fill:none;fill-opacity:1;stroke:#00157a;stroke-width:1.5;stroke-dasharray:none;stroke-opacity:1;filter:url(#filter9381)"
       d="m 351.19984,201.71307 2.29809,46.48141 c 0,0 -0.35355,44.0174 0.35356,72.65522 0.70711,28.63783 2.65165,81.87083 2.65165,105.88924 0,24.01842 1.41421,74.71926 1.41421,74.71926"
       id="path9378" /><path
       style="display:inline;fill:none;fill-opacity:1;stroke:#00157a;stroke-width:1.5;stroke-dasharray:none;stroke-opacity:1;filter:url(#filter9389)"
       d="m 307.71277,201.09094 c 0,0 -3.35876,3.97003 -3.0052,32.60785 0.35355,28.63783 6.0104,70.71068 6.0104,70.71068 l 1.06066,79.54951 1.76777,60.81119 3.53554,56.64131"
       id="path9386" /><path
       style="display:inline;fill:none;fill-opacity:1;stroke:#00157a;stroke-width:1.5;stroke-dasharray:none;stroke-opacity:1;filter:url(#filter9397)"
       d="m 252.73522,201.78442 9.72272,101.74117 c 0,0 4.41941,41.18897 4.77297,80.61017 0.35355,39.4212 3.35875,88.90194 4.41941,103.06081 1.06066,14.15888 1.06066,14.15888 1.06066,14.15888"
       id="path9394" /><path
       style="display:inline;fill:none;fill-opacity:1;stroke:#00157a;stroke-width:1.5;stroke-dasharray:none;stroke-opacity:1;filter:url(#filter9405)"
       d="m 202.53064,201.80974 1.59099,47.09185 c 0,0 3.35875,57.45242 4.06586,78.8424 0.70711,21.38998 3.35876,112.08008 6.36396,142.80927 3.00521,30.72919 3.00521,30.72919 3.00521,30.72919"
       id="path9402" /><path
       style="display:inline;fill:none;fill-opacity:1;stroke:#00157a;stroke-width:1.5;stroke-dasharray:none;stroke-opacity:1;filter:url(#filter9413)"
       d="m 154.97771,202.01133 1.59099,5.70129 -2.82843,41.01219 -1.59099,55.50788 5.65685,94.57554 c 0,0 1.76777,51.08785 4.24264,76.74503 2.47488,25.65718 2.47488,25.65718 2.47488,25.65718 v 0"
       id="path9410" /><path
       style="display:inline;fill:none;fill-opacity:1;stroke:#00157a;stroke-width:1.5;stroke-dasharray:none;stroke-opacity:1;filter:url(#filter9421)"
       d="m 109.19254,200.17056 -2.47487,48.37747 -0.70711,54.624 -0.35355,45.43161 3.0052,49.14393 3.18198,47.0226 2.65165,37.29988 1.23744,19.09188"
       id="path9418" /><path
       style="display:inline;fill:none;fill-opacity:1;stroke:#00157a;stroke-width:1.5;stroke-dasharray:none;stroke-opacity:1;filter:url(#filter9429)"
       d="m 60.04862,200.17056 -3.889087,48.02392 -1.59099,54.97755 -0.883884,47.0226 -0.176777,49.3207 3.181981,45.25484 v 56.39176"
       id="path9426" /></g><g
     inkscape:groupmode="layer"
     id="layer5"
     inkscape:label="Outline"
     style="display:inline;stroke-width:8;stroke-dasharray:none"><path
       style="fill:none;fill-opacity:1;stroke:#000c47;stroke-width:1.5;stroke-dasharray:none;stroke-opacity:1"
       d="m 62.04862,200.17056 -3.889087,48.02392 -1.59099,54.97755 -0.883884,47.0226 -0.176777,49.3207 3.181981,45.25484 v 56.39176"
       id="path9028" /><path
       style="fill:none;fill-opacity:1;stroke:#000c47;stroke-width:1.5;stroke-dasharray:none;stroke-opacity:1"
       d="m 111.19254,200.17056 -2.47487,48.37747 -0.70711,54.624 -0.35355,45.43161 3.0052,49.14393 3.18198,47.0226 2.65165,37.29988 1.23744,19.09188"
       id="path9138" /><path
       style="display:inline;fill:none;fill-opacity:1;stroke:#000c47;stroke-width:1.5;stroke-dasharray:none;stroke-opacity:1"
       d="M 1.567562,201.26133 1024,200.92056"
       id="path8898" /><path
       style="fill:none;fill-opacity:1;stroke:#000c47;stroke-width:1.5;stroke-dasharray:none;stroke-opacity:1"
       d="m 156.97771,202.01133 1.59099,5.70129 -2.82843,41.01219 -1.59099,55.50788 5.65685,94.57554 c 0,0 1.76777,51.08785 4.24264,76.74503 2.47488,25.65718 2.47488,25.65718 2.47488,25.65718 v 0"
       id="path9169" /><path
       style="fill:none;fill-opacity:1;stroke:#000c47;stroke-width:1.5;stroke-dasharray:none;stroke-opacity:1"
       d="m 204.53064,201.80974 1.59099,47.09185 c 0,0 3.35875,57.45242 4.06586,78.8424 0.70711,21.38998 3.35876,112.08008 6.36396,142.80927 3.00521,30.72919 3.00521,30.72919 3.00521,30.72919"
       id="path9172" /><path
       style="fill:none;fill-opacity:1;stroke:#000c47;stroke-width:1.5;stroke-dasharray:none;stroke-opacity:1"
       d="m 254.73522,201.78442 9.72272,101.74117 c 0,0 4.41941,41.18897 4.77297,80.61017 0.35355,39.4212 3.35875,88.90194 4.41941,103.06081 1.06066,14.15888 1.06066,14.15888 1.06066,14.15888"
       id="path9174" /><path
       style="fill:none;fill-opacity:1;stroke:#000c47;stroke-width:1.5;stroke-dasharray:none;stroke-opacity:1"
       d="m 309.71277,201.09094 c 0,0 -3.35876,3.97003 -3.0052,32.60785 0.35355,28.63783 6.0104,70.71068 6.0104,70.71068 l 1.06066,79.54951 1.76777,60.81119 3.53554,56.64131"
       id="path9176" /><path
       style="fill:none;fill-opacity:1;stroke:#000c47;stroke-width:1.5;stroke-dasharray:none;stroke-opacity:1"
       d="m 353.19984,201.71307 2.29809,46.48141 c 0,0 -0.35355,44.0174 0.35356,72.65522 0.70711,28.63783 2.65165,81.87083 2.65165,105.88924 0,24.01842 1.41421,74.71926 1.41421,74.71926"
       id="path9178" /><path
       style="fill:none;fill-opacity:1;stroke:#000c47;stroke-width:1.5;stroke-dasharray:none;stroke-opacity:1"
       d="m 402.125,201.67603 c 0,0 -2.25,1.07397 -1.75,8.94897 0.5,7.875 5,38.125 5,38.125 l -4.625,55.625 2,151.38236 -0.5,45.72175"
       id="path9180" /><path
       style="fill:none;fill-opacity:1;stroke:#000c47;stroke-width:1.5;stroke-dasharray:none;stroke-opacity:1"
       d="m 456.25,200.99918 c 0,0 1.75,38.50082 0.75,70.50082 -1,32 -2.5,98.5 -3.25,113 C 453,399 449,501.48731 449,501.48731"
       id="path9182" /><path
       style="fill:none;fill-opacity:1;stroke:#000c47;stroke-width:1.5;stroke-dasharray:none;stroke-opacity:1"
       d="M 512.78378,201.09094 V 247.5 L 505,303.5 c 0,0 -1,59.5 -3,106.75 -2,47.25 -3.75,68.73344 -5.5,80 -1.75,11.26656 -1.75,11.26656 -1.75,11.26656"
       id="path9184" /><path
       style="fill:none;fill-opacity:1;stroke:#000c47;stroke-width:1.5;stroke-dasharray:none;stroke-opacity:1"
       d="M 566.25,201.09094 558.5,303.25 l -7,95.75 -0.5,83 -1.5,19.63167"
       id="path9186"
       sodipodi:nodetypes="ccccc" /><path
       style="fill:none;fill-opacity:1;stroke:#000c47;stroke-width:1.5;stroke-dasharray:none;stroke-opacity:1"
       d="m 621,201.03421 c 0,0 -13.5,79.71579 -16.75,119.96579 -3.25,40.25 -4.75,111.5 -4.75,111.5 v 69.18881"
       id="path9188"
       sodipodi:nodetypes="cscc" /><path
       style="fill:none;fill-opacity:1;stroke:#000c47;stroke-width:1.5;stroke-dasharray:none;stroke-opacity:1"
       d="M 668.25,200.90898 651,304.75 c 0,0 -5.5,67.75 -5.5,81 0,13.25 0.25,58.75 -1,78.5 -1.25,19.75 -3.5,37.43881 -3.5,37.43881"
       id="path9190"
       sodipodi:nodetypes="ccssc" /><path
       style="fill:none;fill-opacity:1;stroke:#000c47;stroke-width:1.5;stroke-dasharray:none;stroke-opacity:1"
       d="m 816,200.60744 c 0,0 -20.5,113.39256 -24.25,170.64256 -3.75,57.25 -7.5,113.5 -7.5,113.5 L 783,501.79619"
       id="path9196"
       sodipodi:nodetypes="cscc" /><path
       style="fill:none;fill-opacity:1;stroke:#000c47;stroke-width:1.5;stroke-dasharray:none;stroke-opacity:1"
       d="m 711.25,200.78607 c 0,0 -0.52953,22.17439 -3.22701,47.60576 C 705.00045,276.88786 699.70314,309.64332 698.25,323.25 695.5,349 692.5,387.75 692,428 c -0.5,40.25 -0.75,73.78345 -0.75,73.78345"
       id="path9192"
       sodipodi:nodetypes="csssc" /><path
       style="fill:none;fill-opacity:1;stroke:#000c47;stroke-width:1.5;stroke-dasharray:none;stroke-opacity:1"
       d="m 765,200.76816 c 0,0 -6.41749,20.96409 -10.83524,47.4833 -5.31138,31.88356 -8.84587,71.08003 -9.66476,81.99854 -1.5,20 -7,63.69674 -8.25,104.5 -1.25,40.80326 -1.5,67.03904 -1.5,67.03904"
       id="path9194"
       sodipodi:nodetypes="csssc" /><path
       style="fill:none;fill-opacity:1;stroke:#000c47;stroke-width:1.5;stroke-dasharray:none;stroke-opacity:1"
       d="m 863.49907,200.97405 c 0,0 -4.44543,7.93372 -4.57656,21.51868 -0.80183,83.06782 -7.87824,110.37198 -11.17251,138.00727 -4.5,37.75 -7.25,88.75548 -11,115.05326 L 833,501.85104"
       id="path9198"
       sodipodi:nodetypes="csssc" /><path
       style="fill:none;fill-opacity:1;stroke:#000c47;stroke-width:1.5;stroke-dasharray:none;stroke-opacity:1"
       d="m 909.75,200.17056 c 0,0 -1.58786,16.20014 -1.95992,43.0848 C 907.13746,290.41428 907.05466,336.16599 905,352.75 901.5,381 894,444 891.5,463.75 889,483.5 886,501.95692 886,501.95692"
       id="path9200"
       sodipodi:nodetypes="csssc" /><path
       style="fill:none;fill-opacity:1;stroke:#000c47;stroke-width:1.5;stroke-dasharray:none;stroke-opacity:1"
       d="m 961.75,202.01133 c 0,0 0.13172,24.26845 -1.66196,53.98867 -2.33516,38.69203 -6.89133,87.03082 -8.58804,107.25 -3,35.75 -6.75,82.50736 -6.75,82.50736 L 943.25,483.25 942,502.07725"
       id="path9202"
       sodipodi:nodetypes="cssccc" /><path
       style="fill:none;fill-opacity:1;stroke:#000c47;stroke-width:1.5;stroke-dasharray:none;stroke-opacity:1"
       d="m 1018,248.1808 -12.5,101.0692 -2.5,96.50736 -0.25,56.36958"
       id="path9206" /></g><g
     inkscape:groupmode="layer"
     id="layer2"
     inkscape:label="Decoration"
     style="display:inline"><path
       style="fill:none;fill-opacity:1;stroke:#a5afd7;stroke-width:10;stroke-linecap:butt;stroke-linejoin:round;stroke-dasharray:none;stroke-opacity:1"
       d="m 0,475.55326 c 341.33333,0 682.66667,0 1024,0"
       id="path1422"
       inkscape:path-effect="#path-effect1424"
       inkscape:original-d="M 0,475.55326 H 1024" /><path
       style="display:inline;fill:none;fill-opacity:1;stroke:#a5afd7;stroke-width:10;stroke-linecap:butt;stroke-linejoin:round;stroke-dasharray:none;stroke-opacity:1"
       d="m -1.38e-5,450.75736 c 341.3333338,0 682.6666738,0 1024.0000138,0"
       id="path1422-9"
       inkscape:path-effect="#path-effect1424-7"
       inkscape:original-d="M -1.38e-5,450.75736 H 1024" /></g></svg>
