<?xml version="1.0" encoding="UTF-8" standalone="no"?>
<!-- Created with Inkscape (http://www.inkscape.org/) -->

<svg
   version="1.1"
   id="svg2"
   width="1024"
   height="256"
   viewBox="0 0 1024 256"
   sodipodi:docname="eyeliner.svg"
   xml:space="preserve"
   inkscape:version="1.2 (dc2aedaf03, 2022-05-15)"
   inkscape:export-filename="eyeliner.png"
   inkscape:export-xdpi="96"
   inkscape:export-ydpi="96"
   xmlns:inkscape="http://www.inkscape.org/namespaces/inkscape"
   xmlns:sodipodi="http://sodipodi.sourceforge.net/DTD/sodipodi-0.dtd"
   xmlns:xlink="http://www.w3.org/1999/xlink"
   xmlns="http://www.w3.org/2000/svg"
   xmlns:svg="http://www.w3.org/2000/svg"><defs
     id="defs6"><inkscape:path-effect
       effect="mirror_symmetry"
       start_point="918.4909,-9.1566271"
       end_point="918.4909,144.17428"
       center_point="918.4909,67.508827"
       id="path-effect1179"
       is_visible="true"
       lpeversion="1.2"
       lpesatellites=""
       mode="free"
       discard_orig_path="false"
       fuse_paths="false"
       oposite_fuse="false"
       split_items="false"
       split_open="false"
       link_styles="false" /><linearGradient
       inkscape:collect="always"
       id="linearGradient1048"><stop
         style="stop-color:#ffffff;stop-opacity:0.85925925;"
         offset="0.15529412"
         id="stop1044" /><stop
         style="stop-color:#ffffff;stop-opacity:0;"
         offset="1"
         id="stop1046" /></linearGradient><linearGradient
       inkscape:collect="always"
       id="linearGradient1040"><stop
         style="stop-color:#ffffff;stop-opacity:0.7962963;"
         offset="0"
         id="stop1036" /><stop
         style="stop-color:#ffffff;stop-opacity:0;"
         offset="1"
         id="stop1038" /></linearGradient><inkscape:path-effect
       effect="mirror_symmetry"
       start_point="918.4909,-9.1566271"
       end_point="918.4909,144.17428"
       center_point="918.4909,67.508827"
       id="path-effect1034"
       is_visible="true"
       lpeversion="1.2"
       lpesatellites=""
       mode="free"
       discard_orig_path="false"
       fuse_paths="false"
       oposite_fuse="false"
       split_items="false"
       split_open="false"
       link_styles="false" /><inkscape:path-effect
       effect="mirror_symmetry"
       start_point="297.63855,42.038288"
       end_point="297.63855,181.59037"
       center_point="297.63855,111.81433"
       id="path-effect981"
       is_visible="true"
       lpeversion="1.2"
       lpesatellites=""
       mode="free"
       discard_orig_path="false"
       fuse_paths="false"
       oposite_fuse="false"
       split_items="false"
       split_open="false"
       link_styles="false" /><inkscape:path-effect
       effect="mirror_symmetry"
       start_point="474.32839,76.845818"
       end_point="474.32839,144.17428"
       center_point="474.32839,110.51005"
       id="path-effect979"
       is_visible="true"
       lpeversion="1.2"
       lpesatellites=""
       mode="free"
       discard_orig_path="false"
       fuse_paths="false"
       oposite_fuse="false"
       split_items="false"
       split_open="false"
       link_styles="false" /><inkscape:path-effect
       effect="mirror_symmetry"
       start_point="918.49089,-9.1566271"
       end_point="918.49089,144.17428"
       center_point="918.49089,67.508826"
       id="path-effect977"
       is_visible="true"
       lpeversion="1.2"
       lpesatellites=""
       mode="free"
       discard_orig_path="false"
       fuse_paths="false"
       oposite_fuse="false"
       split_items="false"
       split_open="false"
       link_styles="false" /><inkscape:path-effect
       effect="simplify"
       id="path-effect25644"
       is_visible="true"
       lpeversion="1"
       steps="1"
       threshold="0.00172414"
       smooth_angles="360"
       helper_size="0"
       simplify_individual_paths="false"
       simplify_just_coalesce="false" /><inkscape:path-effect
       effect="simplify"
       id="path-effect24026"
       is_visible="true"
       lpeversion="1"
       steps="1"
       threshold="0.00172414"
       smooth_angles="360"
       helper_size="0"
       simplify_individual_paths="false"
       simplify_just_coalesce="false" /><inkscape:path-effect
       effect="mirror_symmetry"
       start_point="826.21687,122.13353"
       end_point="826.21687,131.30453"
       center_point="826.21687,126.71903"
       id="path-effect23812"
       is_visible="true"
       lpeversion="1.2"
       lpesatellites=""
       mode="free"
       discard_orig_path="false"
       fuse_paths="false"
       oposite_fuse="false"
       split_items="false"
       split_open="false"
       link_styles="false" /><inkscape:path-effect
       effect="mirror_symmetry"
       start_point="733.66025,122.13353"
       end_point="733.66025,131.30453"
       center_point="733.66025,126.71903"
       id="path-effect23806"
       is_visible="true"
       lpeversion="1.2"
       lpesatellites=""
       mode="free"
       discard_orig_path="false"
       fuse_paths="false"
       oposite_fuse="false"
       split_items="false"
       split_open="false"
       link_styles="false" /><linearGradient
       inkscape:collect="always"
       id="linearGradient23795"><stop
         style="stop-color:#311016;stop-opacity:0.15925926;"
         offset="0"
         id="stop23793" /><stop
         style="stop-color:#311016;stop-opacity:0.78518516;"
         offset="0.85411769"
         id="stop23791" /></linearGradient><inkscape:path-effect
       effect="mirror_symmetry"
       start_point="512,-15.699495"
       end_point="512,137.63142"
       center_point="512,60.96596"
       id="path-effect22643"
       is_visible="true"
       lpeversion="1.2"
       lpesatellites=""
       mode="free"
       discard_orig_path="false"
       fuse_paths="false"
       oposite_fuse="false"
       split_items="false"
       split_open="false"
       link_styles="false" /><filter
       inkscape:collect="always"
       style="color-interpolation-filters:sRGB"
       id="filter18504"
       x="-0.87716912"
       y="-2.2664562"
       width="2.7543382"
       height="5.5329124"><feGaussianBlur
         inkscape:collect="always"
         stdDeviation="96.692528"
         id="feGaussianBlur18506" /></filter><filter
       id="mask-powermask-path-effect19863_inverse"
       inkscape:label="filtermask-powermask-path-effect19863"
       style="color-interpolation-filters:sRGB"
       height="100"
       width="100"
       x="-50"
       y="-50"><feColorMatrix
         id="mask-powermask-path-effect19863_primitive1"
         values="1"
         type="saturate"
         result="fbSourceGraphic" /><feColorMatrix
         id="mask-powermask-path-effect19863_primitive2"
         values="-1 0 0 0 1 0 -1 0 0 1 0 0 -1 0 1 0 0 0 1 0 "
         in="fbSourceGraphic" /></filter><filter
       inkscape:collect="always"
       style="color-interpolation-filters:sRGB"
       id="filter22257"
       x="-0.32379774"
       y="-0.47501125"
       width="1.6475955"
       height="1.9500225"><feGaussianBlur
         inkscape:collect="always"
         stdDeviation="27.620337"
         id="feGaussianBlur22259" /></filter><linearGradient
       inkscape:collect="always"
       xlink:href="#linearGradient23795"
       id="linearGradient23797"
       x1="197.78313"
       y1="126.71903"
       x2="310.88944"
       y2="126.71903"
       gradientUnits="userSpaceOnUse" /><clipPath
       clipPathUnits="userSpaceOnUse"
       id="clipPath985"><path
         style="fill:#461720;stroke:none;stroke-width:1.5"
         d="m 383.14766,119.76464 -246.76503,-0.2407 -4.46414,3.13513 v 21.51521 c 0,0 -17.61803,-4.45946 -16.52755,-41.26309 l -9.88183,-16.206781 31.08433,-0.09639 c 0,0 30.97005,-4.109207 43.78316,-5.063376 0,0 -12.57457,-1.260865 -18.23142,-0.783781 0,0 26.11092,-3.984168 38.25549,-3.213084 0,0 54.29882,-0.535434 134.44895,1.918142 0,0 15.67562,-3.680363 50.02567,-2.317266 0,0 -29.39028,1.02563 -37.00474,2.953341 0,0 63.42169,9.590361 82.6988,9.975904 0,0 -22.99848,1.826284 -25.48614,3.155304 0,0 42.44999,13.133847 69.24518,15.254337 0,0 -94.68039,-4.8564 -91.18073,11.2771 z m 257.70468,0 246.76503,-0.2407 4.46414,3.13513 v 21.51521 c 0,0 17.61803,-4.45946 16.52755,-41.26309 l 9.88183,-16.206781 -31.08433,-0.09639 c 0,0 -30.97005,-4.109207 -43.78316,-5.063376 0,0 12.57457,-1.260865 18.23142,-0.783781 0,0 -26.11092,-3.984168 -38.25549,-3.213084 0,0 -54.29882,-0.535434 -134.44895,1.918142 0,0 -15.67562,-3.680363 -50.02567,-2.317266 0,0 29.39028,1.02563 37.00474,2.953341 0,0 -63.42169,9.590361 -82.6988,9.975904 0,0 22.99848,1.826284 25.48614,3.155304 0,0 -42.44999,13.133847 -69.24518,15.254337 0,0 94.68039,-4.8564 91.18073,11.2771 z m 0,0 246.76503,-0.2407 4.46414,3.13513 v 21.51521 c 0,0 17.61803,-4.45946 16.52755,-41.26309 l 9.88183,-16.206781 -31.08433,-0.09639 c 0,0 -30.97005,-4.109207 -43.78316,-5.063376 0,0 12.57457,-1.260865 18.23142,-0.783781 0,0 -26.11092,-3.984168 -38.25549,-3.213084 0,0 -54.29882,-0.535434 -134.44895,1.918142 0,0 -15.67562,-3.680363 -50.02567,-2.317266 0,0 29.39028,1.02563 37.00474,2.953341 0,0 -63.42169,9.590361 -82.6988,9.975904 0,0 22.99848,1.826284 25.48614,3.155304 0,0 -42.44999,13.133847 -69.24518,15.254337 0,0 94.68039,-4.8564 91.18073,11.2771 z m -257.70468,0 -246.76503,-0.2407 -4.46414,3.13513 v 21.51521 c 0,0 -17.61803,-4.45946 -16.52755,-41.26309 l -9.88183,-16.206781 31.08433,-0.09639 c 0,0 30.97005,-4.109207 43.78316,-5.063376 0,0 -12.57457,-1.260865 -18.23142,-0.783781 0,0 26.11092,-3.984168 38.25549,-3.213084 0,0 54.29882,-0.535434 134.44895,1.918142 0,0 15.67562,-3.680363 50.02567,-2.317266 0,0 -29.39028,1.02563 -37.00474,2.953341 0,0 63.42169,9.590361 82.6988,9.975904 0,0 -22.99848,1.826284 -25.48614,3.155304 0,0 42.44999,13.133847 69.24518,15.254337 0,0 -94.68039,-4.8564 -91.18073,11.2771 z"
         id="path987"
         class="UnoptimicedTransforms"
         transform="matrix(2.4900599,0,0,1.7173402,-208.50926,32.772163)" /></clipPath><clipPath
       clipPathUnits="userSpaceOnUse"
       id="clipPath1013"><path
         style="fill:#461720;stroke:none;stroke-width:1.5"
         d="m 383.14766,119.76464 -246.76503,-0.2407 -4.46414,3.13513 v 21.51521 c 0,0 -17.61803,-4.45946 -16.52755,-41.26309 l -9.88183,-16.206781 31.08433,-0.09639 c 0,0 30.97005,-4.109207 43.78316,-5.063376 0,0 -12.57457,-1.260865 -18.23142,-0.783781 0,0 26.11092,-3.984168 38.25549,-3.213084 0,0 54.29882,-0.535434 134.44895,1.918142 0,0 15.67562,-3.680363 50.02567,-2.317266 0,0 -29.39028,1.02563 -37.00474,2.953341 0,0 63.42169,9.590361 82.6988,9.975904 0,0 -22.99848,1.826284 -25.48614,3.155304 0,0 42.44999,13.133847 69.24518,15.254337 0,0 -94.68039,-4.8564 -91.18073,11.2771 z m 257.70468,0 246.76503,-0.2407 4.46414,3.13513 v 21.51521 c 0,0 17.61803,-4.45946 16.52755,-41.26309 l 9.88183,-16.206781 -31.08433,-0.09639 c 0,0 -30.97005,-4.109207 -43.78316,-5.063376 0,0 12.57457,-1.260865 18.23142,-0.783781 0,0 -26.11092,-3.984168 -38.25549,-3.213084 0,0 -54.29882,-0.535434 -134.44895,1.918142 0,0 -15.67562,-3.680363 -50.02567,-2.317266 0,0 29.39028,1.02563 37.00474,2.953341 0,0 -63.42169,9.590361 -82.6988,9.975904 0,0 22.99848,1.826284 25.48614,3.155304 0,0 -42.44999,13.133847 -69.24518,15.254337 0,0 94.68039,-4.8564 91.18073,11.2771 z m 0,0 246.76503,-0.2407 4.46414,3.13513 v 21.51521 c 0,0 17.61803,-4.45946 16.52755,-41.26309 l 9.88183,-16.206781 -31.08433,-0.09639 c 0,0 -30.97005,-4.109207 -43.78316,-5.063376 0,0 12.57457,-1.260865 18.23142,-0.783781 0,0 -26.11092,-3.984168 -38.25549,-3.213084 0,0 -54.29882,-0.535434 -134.44895,1.918142 0,0 -15.67562,-3.680363 -50.02567,-2.317266 0,0 29.39028,1.02563 37.00474,2.953341 0,0 -63.42169,9.590361 -82.6988,9.975904 0,0 22.99848,1.826284 25.48614,3.155304 0,0 -42.44999,13.133847 -69.24518,15.254337 0,0 94.68039,-4.8564 91.18073,11.2771 z m -257.70468,0 -246.76503,-0.2407 -4.46414,3.13513 v 21.51521 c 0,0 -17.61803,-4.45946 -16.52755,-41.26309 l -9.88183,-16.206781 31.08433,-0.09639 c 0,0 30.97005,-4.109207 43.78316,-5.063376 0,0 -12.57457,-1.260865 -18.23142,-0.783781 0,0 26.11092,-3.984168 38.25549,-3.213084 0,0 54.29882,-0.535434 134.44895,1.918142 0,0 15.67562,-3.680363 50.02567,-2.317266 0,0 -29.39028,1.02563 -37.00474,2.953341 0,0 63.42169,9.590361 82.6988,9.975904 0,0 -22.99848,1.826284 -25.48614,3.155304 0,0 42.44999,13.133847 69.24518,15.254337 0,0 -94.68039,-4.8564 -91.18073,11.2771 z"
         id="path1015"
         class="UnoptimicedTransforms"
         transform="matrix(-1.7841822,0,0,1,1513.8369,66.381267)" /></clipPath><linearGradient
       inkscape:collect="always"
       xlink:href="#linearGradient1040"
       id="linearGradient1042"
       x1="54.214744"
       y1="206.31087"
       x2="363.92737"
       y2="206.31087"
       gradientUnits="userSpaceOnUse" /><linearGradient
       inkscape:collect="always"
       xlink:href="#linearGradient1048"
       id="linearGradient1050"
       x1="426.75354"
       y1="176.89132"
       x2="1155.4356"
       y2="176.89132"
       gradientUnits="userSpaceOnUse" /><linearGradient
       inkscape:collect="always"
       xlink:href="#linearGradient1048"
       id="linearGradient1189"
       gradientUnits="userSpaceOnUse"
       x1="426.75354"
       y1="176.89132"
       x2="1155.4356"
       y2="176.89132" /><linearGradient
       inkscape:collect="always"
       xlink:href="#linearGradient1040"
       id="linearGradient1191"
       gradientUnits="userSpaceOnUse"
       x1="54.214744"
       y1="206.31087"
       x2="363.92737"
       y2="206.31087" /></defs><sodipodi:namedview
     id="namedview4"
     pagecolor="#ffffff"
     bordercolor="#000000"
     borderopacity="0.25"
     inkscape:showpageshadow="2"
     inkscape:pageopacity="0.0"
     inkscape:pagecheckerboard="0"
     inkscape:deskcolor="#d1d1d1"
     showgrid="false"
     inkscape:zoom="0.91702911"
     inkscape:cx="460.72692"
     inkscape:cy="272.07424"
     inkscape:window-width="1920"
     inkscape:window-height="991"
     inkscape:window-x="-9"
     inkscape:window-y="-9"
     inkscape:window-maximized="1"
     inkscape:current-layer="g359" /><g
     inkscape:groupmode="layer"
     id="layer9"
     inkscape:label="Symmetry 1"
     style="display:none"><rect
       style="opacity:1;fill:#212121;fill-opacity:0.820809;fill-rule:nonzero;stroke:#1a080c;stroke-width:2.5;stroke-linecap:round;stroke-dasharray:none;stroke-opacity:0.68"
       id="rect27216"
       width="1001.6385"
       height="256"
       x="21.111511"
       y="1.25" /></g><g
     inkscape:groupmode="layer"
     id="layer1"
     inkscape:label="Symmetry"
     class="UnoptimicedTransforms"
     inkscape:path-effect="#path-effect22643"
     style="display:inline"><g
       inkscape:groupmode="layer"
       id="layer2"
       inkscape:label="Top"
       style="display:none"><path
         style="fill:#212121;stroke:none;stroke-width:1.5"
         d="m 383.14766,119.76464 -246.76503,-0.2407 -4.46414,3.13513 v 21.51521 c 0,0 -17.61803,-4.45946 -16.52755,-41.26309 l -9.88183,-16.206781 31.08433,-0.09639 c 0,0 30.97005,-4.109207 43.78316,-5.063376 0,0 -12.57457,-1.260865 -18.23142,-0.783781 0,0 26.11092,-3.984168 38.25549,-3.213084 0,0 54.29882,-0.535434 134.44895,1.918142 0,0 15.67562,-3.680363 50.02567,-2.317266 0,0 -29.39028,1.02563 -37.00474,2.953341 0,0 63.42169,9.590361 82.6988,9.975904 0,0 -22.99848,1.826284 -25.48614,3.155304 0,0 42.44999,13.133847 69.24518,15.254337 0,0 -94.68039,-4.8564 -91.18073,11.2771 z m 257.70468,0 246.76503,-0.2407 4.46414,3.13513 v 21.51521 c 0,0 17.61803,-4.45946 16.52755,-41.26309 l 9.88183,-16.206781 -31.08433,-0.09639 c 0,0 -30.97005,-4.109207 -43.78316,-5.063376 0,0 12.57457,-1.260865 18.23142,-0.783781 0,0 -26.11092,-3.984168 -38.25549,-3.213084 0,0 -54.29882,-0.535434 -134.44895,1.918142 0,0 -15.67562,-3.680363 -50.02567,-2.317266 0,0 29.39028,1.02563 37.00474,2.953341 0,0 -63.42169,9.590361 -82.6988,9.975904 0,0 22.99848,1.826284 25.48614,3.155304 0,0 -42.44999,13.133847 -69.24518,15.254337 0,0 94.68039,-4.8564 91.18073,11.2771 z"
         id="path361"
         inkscape:original-d="m 383.14766,119.76464 -246.76503,-0.2407 -4.46414,3.13513 v 21.51521 c 0,0 -17.61803,-4.45946 -16.52755,-41.26309 l -9.88183,-16.206781 31.08433,-0.09639 c 0,0 30.97005,-4.109207 43.78316,-5.063376 0,0 -12.57457,-1.260865 -18.23142,-0.783781 0,0 26.11092,-3.984168 38.25549,-3.213084 0,0 54.29882,-0.535434 134.44895,1.918142 0,0 15.67562,-3.680363 50.02567,-2.317266 0,0 -29.39028,1.02563 -37.00474,2.953341 0,0 63.42169,9.590361 82.6988,9.975904 0,0 -22.99848,1.826284 -25.48614,3.155304 0,0 42.44999,13.133847 69.24518,15.254337 0,0 -94.68039,-4.8564 -91.18073,11.2771 z" /><path
         style="mix-blend-mode:normal;fill:#ffffff;fill-opacity:1;stroke:none;stroke-width:1.5;filter:url(#filter18504)"
         id="rect3267"
         width="264.55795"
         height="102.38983"
         x="658.81561"
         y="57.22464"
         rx="0"
         ry="0"
         class="UnoptimicedTransforms"
         transform="matrix(-0.56048087,0,0,1,848.47661,-66.381267)"
         d="M 658.81561,57.22464 H 923.37357 V 159.61447 H 658.81561 Z m -116.96006,0 H 277.2976 v 102.38983 h 264.55795 z"
         sodipodi:type="rect" /><path
         style="fill:#ffffff;fill-opacity:0.320809;fill-rule:nonzero;stroke:none;stroke-width:1.5;filter:url(#filter22257)"
         id="rect21215"
         width="204.72289"
         height="139.55208"
         x="92.915665"
         y="42.038288"
         transform="matrix(0.40159677,0,0,0.58229581,83.736644,-19.083093)"
         d="M 92.915665,42.038288 H 297.63855 V 181.59037 H 92.915665 Z m 1946.971435,0 H 1835.1642 V 181.59037 h 204.7229 z"
         sodipodi:type="rect" /></g><g
       inkscape:groupmode="layer"
       id="layer7"
       inkscape:label="Bottom"
       style="display:inline"><path
         style="opacity:1;fill:#311016;fill-opacity:1;fill-rule:nonzero;stroke:none;stroke-width:1.5"
         d="m 290.33975,122.67877 c 0,0 13.32529,8.64167 20.54969,8.62574 l 99.81181,-0.22017 c 0,0 14.17621,-5.952 14.99407,-8.95081 z m 443.3205,0 c 0,0 -13.32529,8.64167 -20.54969,8.62574 l -99.81181,-0.22017 c 0,0 -14.17621,-5.952 -14.99407,-8.95081 z"
         id="path22734"
         sodipodi:nodetypes="csccc"
         class="UnoptimicedTransforms"
         inkscape:original-d="m 290.33975,122.67877 c 0,0 13.32529,8.64167 20.54969,8.62574 l 99.81181,-0.22017 c 0,0 14.17621,-5.952 14.99407,-8.95081 z" /><path
         style="opacity:1;fill:url(#linearGradient23797);fill-opacity:1;fill-rule:nonzero;stroke:none;stroke-width:1.5"
         d="m 309.01205,122.13353 -100.0482,-0.4285 c 0,0 -38.80275,28.41929 -26.07986,28.41929 12.72289,0 130.59533,-18.60631 130.59533,-18.60631 z m 411.15567,0 100.0482,-0.4285 c 0,0 38.80275,28.41929 26.07986,28.41929 -12.72289,0 -130.59533,-18.60631 -130.59533,-18.60631 z"
         id="path23303"
         class="UnoptimicedTransforms"
         transform="matrix(1,0,0,0.93457638,-2.589885,8.3908868)"
         sodipodi:nodetypes="ccscc"
         inkscape:original-d="m 309.01205,122.13353 -100.0482,-0.4285 c 0,0 -38.80275,28.41929 -26.07986,28.41929 12.72289,0 130.59533,-18.60631 130.59533,-18.60631 z" /></g><g
       inkscape:groupmode="layer"
       id="layer8"
       inkscape:label="Lash"
       style="display:inline"><path
         style="display:inline;opacity:1;fill:none;fill-opacity:0.820809;fill-rule:nonzero;stroke:#1a080c;stroke-width:2.5;stroke-linecap:round;stroke-dasharray:none;stroke-opacity:0.68"
         d="m 245.84028,122.13353 c -1.14276,5.25745 -4.75763,9.54067 -8.84729,12.88031 -4.84733,3.95836 -10.5735,6.86295 -14.76644,11.60784 -2.8839,3.26353 -3.95539,7.77628 -3.45328,12.06365 0.14798,1.26357 0.40633,2.51267 0.73896,3.74006 m 558.64749,-40.29186 c 1.14276,5.25745 4.75763,9.54067 8.84729,12.88031 4.84733,3.95836 10.5735,6.86295 14.76644,11.60784 2.8839,3.26353 3.95539,7.77628 3.45328,12.06365 -0.14798,1.26357 -0.40633,2.51267 -0.73896,3.74006"
         id="path24024"
         inkscape:path-effect="#path-effect24026"
         inkscape:original-d="m 245.84028,122.13353 c -4.46463,19.11685 -32.46626,17.65408 -26.32805,40.29186"
         sodipodi:nodetypes="cc" /><path
         style="display:inline;opacity:1;fill:none;fill-opacity:0.820809;fill-rule:nonzero;stroke:#1a080c;stroke-width:2.5;stroke-linecap:round;stroke-dasharray:none;stroke-opacity:0.68"
         d="m 279.2422,122.13353 c 1.06227,2.98963 0.6603,6.34906 -0.79002,9.14558 -3.03558,5.85326 -8.73099,9.75153 -11.90552,15.51023 -1.25173,2.27068 -1.87145,4.94302 -1.35365,7.5161 M 744.7578,122.13353 c -1.06227,2.98963 -0.6603,6.34906 0.79002,9.14558 3.03558,5.85326 8.73099,9.75153 11.90552,15.51023 1.25173,2.27068 1.87145,4.94302 1.35365,7.5161"
         id="path25642"
         inkscape:path-effect="#path-effect25644"
         inkscape:original-d="m 279.2422,122.13353 c 4.39461,13.28 -16.36261,19.84168 -14.04919,32.17191"
         sodipodi:nodetypes="cc" /><path
         style="opacity:1;fill:none;fill-opacity:0.820809;fill-rule:nonzero;stroke:#1a080c;stroke-width:2.5;stroke-linecap:round;stroke-dasharray:none;stroke-opacity:0.682081"
         d="m 306.42216,122.534 c 4.46728,8.77051 -0.38523,16.68332 2.93932,25.45695 M 717.57784,122.534 c -4.46728,8.77051 0.38523,16.68332 -2.93932,25.45695"
         id="path25707"
         sodipodi:nodetypes="cc"
         inkscape:original-d="m 306.42216,122.534 c 4.46728,8.77051 -0.38523,16.68332 2.93932,25.45695" /></g></g><g
     inkscape:groupmode="layer"
     id="g359"
     inkscape:label="Top"
     class="UnoptimicedTransforms"
     style="display:inline"><g
       id="g1059"
       inkscape:label="Left"><path
         style="fill:#461720;stroke:none;stroke-width:1.5"
         d="m 383.14766,119.76464 -246.76503,-0.2407 -4.46414,3.13513 v 21.51521 c 0,0 -17.61803,-4.45946 -16.52755,-41.26309 l -9.88183,-16.206781 31.08433,-0.09639 c 0,0 30.97005,-4.109207 43.78316,-5.063376 0,0 -12.57457,-1.260865 -18.23142,-0.783781 0,0 26.11092,-3.984168 38.25549,-3.213084 0,0 54.29882,-0.535434 134.44895,1.918142 0,0 15.67562,-3.680363 50.02567,-2.317266 0,0 -29.39028,1.02563 -37.00474,2.953341 0,0 63.42169,9.590361 82.6988,9.975904 0,0 -22.99848,1.826284 -25.48614,3.155304 0,0 42.44999,13.133847 69.24518,15.254337 0,0 -94.68039,-4.8564 -91.18073,11.2771 z"
         id="path353"
         class="UnoptimicedTransforms" /><path
         style="mix-blend-mode:normal;fill:url(#linearGradient1050);fill-opacity:1;stroke:none;stroke-width:1.5;filter:url(#filter18504)"
         id="path355"
         width="264.55795"
         height="102.38983"
         x="658.81561"
         y="57.22464"
         rx="0"
         ry="0"
         class="UnoptimicedTransforms"
         transform="matrix(-0.56048087,0,0,1,848.47661,-66.381267)"
         sodipodi:type="rect"
         clip-path="url(#clipPath1013)" /><path
         style="fill:url(#linearGradient1042);fill-opacity:1;fill-rule:nonzero;stroke:none;stroke-width:1.5;filter:url(#filter22257)"
         id="path357"
         width="204.72289"
         height="139.55208"
         x="92.915665"
         y="42.038288"
         transform="matrix(0.40159677,0,0,0.58229581,83.736644,-19.083093)"
         sodipodi:type="rect"
         class="UnoptimicedTransforms"
         clip-path="url(#clipPath985)" /></g><g
       id="g1187"
       inkscape:label="Right"
       transform="matrix(-1,0,0,1,1024,0)"><path
         style="fill:#461720;stroke:none;stroke-width:1.5"
         d="m 383.14766,119.76464 -246.76503,-0.2407 -4.46414,3.13513 v 21.51521 c 0,0 -17.61803,-4.45946 -16.52755,-41.26309 l -9.88183,-16.206781 31.08433,-0.09639 c 0,0 30.97005,-4.109207 43.78316,-5.063376 0,0 -12.57457,-1.260865 -18.23142,-0.783781 0,0 26.11092,-3.984168 38.25549,-3.213084 0,0 54.29882,-0.535434 134.44895,1.918142 0,0 15.67562,-3.680363 50.02567,-2.317266 0,0 -29.39028,1.02563 -37.00474,2.953341 0,0 63.42169,9.590361 82.6988,9.975904 0,0 -22.99848,1.826284 -25.48614,3.155304 0,0 42.44999,13.133847 69.24518,15.254337 0,0 -94.68039,-4.8564 -91.18073,11.2771 z"
         id="path1181"
         class="UnoptimicedTransforms" /><path
         style="mix-blend-mode:normal;fill:url(#linearGradient1189);fill-opacity:1;stroke:none;stroke-width:1.5;filter:url(#filter18504)"
         id="path1183"
         width="264.55795"
         height="102.38983"
         x="658.81561"
         y="57.22464"
         rx="0"
         ry="0"
         class="UnoptimicedTransforms"
         transform="matrix(-0.56048087,0,0,1,848.47661,-66.381267)"
         sodipodi:type="rect"
         clip-path="url(#clipPath1013)"
         d="M 658.81561,57.22464 H 923.37357 V 159.61447 H 658.81561 Z" /><path
         style="fill:url(#linearGradient1191);fill-opacity:1;fill-rule:nonzero;stroke:none;stroke-width:1.5;filter:url(#filter22257)"
         id="path1185"
         width="204.72289"
         height="139.55208"
         x="92.915665"
         y="42.038288"
         transform="matrix(0.40159677,0,0,0.58229581,83.736644,-19.083093)"
         sodipodi:type="rect"
         class="UnoptimicedTransforms"
         clip-path="url(#clipPath985)"
         d="M 92.915665,42.038288 H 297.63855 V 181.59037 H 92.915665 Z" /></g></g></svg>
